<?xml version="1.0" encoding="UTF-8"?>
<svg width="29px" height="36px" viewBox="0 0 29 36" version="1.1" xmlns="http://www.w3.org/2000/svg" xmlns:xlink="http://www.w3.org/1999/xlink">
    <!-- Generator: Sketch 61 (89581) - https://sketch.com -->
    <title>352-flag-1</title>
    <desc>Created with Sketch.</desc>
    <defs>
        <linearGradient x1="13.1147161%" y1="21.9861444%" x2="100%" y2="83.6621466%" id="linearGradient-1">
            <stop stop-color="#E3E7F2" offset="0.0580658784%"></stop>
            <stop stop-color="#D0D8EE" offset="100%"></stop>
        </linearGradient>
    </defs>
    <g id="Home-Revamp" stroke="none" stroke-width="1" fill="none" fill-rule="evenodd">
        <g id="LandingPage-Elrond-Revamp" transform="translate(-1297.000000, -811.000000)">
            <g id="Inline-menu" transform="translate(508.000000, 766.000000)">
                <g id="352-flag-1" transform="translate(789.000000, 45.000000)">
                    <polygon id="Path" fill="#FFFFFF" fill-rule="nonzero" points="16.2140625 21.6 0.614039063 21.6 0.614039063 2.39997656 16.2140625 2.39997656 16.2140625 12.0000234"></polygon>
                    <polygon id="Path" fill="#A4C2F7" fill-rule="nonzero" points="28.2140156 21.6 18.6140391 21.6 18.6140391 2.39997656 28.2140156 2.39997656 22.2140391 12.0000234"></polygon>
                    <polygon id="Path" fill="url(#linearGradient-1)" fill-rule="nonzero" points="25.8140391 21.6 2.41403906 21.6 2.41403906 2.39997656 25.8140391 2.39997656 19.8140625 12.0000234"></polygon>
                    <g id="Group" fill="#1B46C2" fill-rule="nonzero">
                        <path d="M0.614039062,36.0000001 C0.454851562,36.0000001 0.302203125,35.9369297 0.189703125,35.8243594 C0.0771328125,35.7117891 0.0139921875,35.5591406 0.0140624413,35.4000234 L0.0140624413,19.8 C0.0140624413,19.4686172 0.282726562,19.2000234 0.614039062,19.2000234 C0.945351562,19.2000234 1.21401568,19.4686172 1.21401568,19.8 L1.21401568,35.4000234 C1.21408594,35.5592109 1.15094531,35.7118594 1.038375,35.8243594 C0.925875,35.9369297 0.773226562,36.0000001 0.614039062,36.0000001 Z" id="Path"></path>
                        <path d="M28.2140156,22.1999766 L0.614039063,22.1999766 C0.454851563,22.1999766 0.302203125,22.1369063 0.189703125,22.0243359 C0.0771328125,21.9117656 0.0140624413,21.7591172 0.0140624413,21.6 L0.0140624413,2.39997656 C0.0140624413,2.24078906 0.0771328125,2.08814063 0.189703125,1.97564063 C0.302273438,1.86307031 0.454921875,1.79999994 0.614039063,1.79999994 L28.2140156,1.79999994 C28.4321953,1.79999994 28.6332187,1.91833594 28.7388984,2.10916406 C28.8446484,2.29999994 28.8383906,2.53321875 28.7225859,2.71814063 L22.921875,12.0000234 L28.7226562,21.2818359 C28.8384609,21.4667578 28.8446484,21.6999844 28.7389687,21.8908125 C28.6332187,22.0817109 28.4321953,22.1999766 28.2140156,22.1999766 L28.2140156,22.1999766 Z M1.21401563,21.0000234 L27.1312031,21.0000234 L21.7053984,12.3181875 C21.5835469,12.1235625 21.5835469,11.8764844 21.7053984,11.6818594 L27.1312031,3.00002344 L1.21401563,3.00002344 L1.21401563,21.0000234 Z" id="Shape"></path>
                        <path d="M0.614039062,3.0000235 C0.454851562,3.00009375 0.302203125,2.93695313 0.189703125,2.82438281 C0.0771328125,2.7118125 0.0139921875,2.55916406 0.0140624413,2.40004687 L0.0140624413,0.600046875 C0.0140624413,0.268664063 0.28265625,0 0.614039062,0 C0.945421875,0 1.21401568,0.268664063 1.21401568,0.599976562 L1.21401568,2.39997656 C1.21408594,2.55916406 1.15094531,2.7118125 1.038375,2.8243125 C0.925875,2.93688281 0.773226562,3.00009375 0.614039062,3.0000235 L0.614039062,3.0000235 Z" id="Path"></path>
                    </g>
                    <polygon id="Path-4" fill="#1B46C2" points="6.5 3.00002344 0.614039063 3.0000235 0.614039063 14.0864258 12.2519531 3.00002344"></polygon>
                </g>
            </g>
        </g>
    </g>
</svg>