<?xml version="1.0" encoding="utf-8"?>
<!-- Generator: Adobe Illustrator 24.3.0, SVG Export Plug-In . SVG Version: 6.00 Build 0)  -->
<svg version="1.1" id="Layer_1" xmlns="http://www.w3.org/2000/svg" xmlns:xlink="http://www.w3.org/1999/xlink" x="0px" y="0px"
	 viewBox="0 0 257.8 47.6" enable-background="new 0 0 257.8 47.6" xml:space="preserve">
<g>
	<path fill="#FFFFFF" d="M0,0h18.9c3.6,0,6.3,0.9,8.3,2.4c2.2,1.8,3.4,4.4,3.4,7.6c0,3.7-1.5,6-4.5,7.4v0.2c4,1.3,6.3,4.9,6.3,9.2
		c0,4.1-1.6,7.3-4.2,9.3c-2.2,1.6-5,2.3-8.8,2.3H0V0z M17,15c2,0,3.5-1.1,3.5-3.4c0-2.2-1.5-3.3-3.6-3.3h-6.5v6.6H17V15z M17.9,29.9
		c2.3,0,4-1.4,4-3.9c0-2.7-1.8-3.9-4-3.9h-7.4V30h7.4V29.9z"/>
	<path fill="#FFFFFF" d="M34.1,0H44v38.5h-9.9V0z"/>
	<path fill="#FFFFFF" d="M46,24.8c0-8.7,5.6-14.5,14.3-14.5s14.2,5.9,14.2,14.5c0,8.7-5.5,14.5-14.2,14.5S46,33.5,46,24.8z
		 M64.6,24.8c0-4.8-1.5-7.8-4.5-7.8s-4.4,3-4.4,7.8s1.4,7.9,4.4,7.9C63.1,32.6,64.6,29.6,64.6,24.8z"/>
	<path fill="#FFFFFF" d="M75.6,24.8c0-8.7,5.6-14.5,14.3-14.5S104,16.1,104,24.8s-5.5,14.5-14.2,14.5C81.2,39.3,75.6,33.5,75.6,24.8
		z M94.2,24.8c0-4.8-1.5-7.8-4.5-7.8s-4.4,3-4.4,7.8s1.4,7.9,4.4,7.9C92.7,32.6,94.2,29.6,94.2,24.8z"/>
	<path fill="#FFFFFF" d="M106,11h9.2v4.1h0.2c1.8-3.2,4.3-4.9,8.3-4.9c3.5,0,6.1,1.7,7.4,4.7h0.2c2.2-3.6,5.1-4.7,8.5-4.7
		c6.4,0,9.1,4.7,9.1,11v17.2h-9.6V22.9c0-2.8-0.9-4.6-3.3-4.6c-2.4,0-3.6,2.2-3.6,5.2v14.9h-9.6V22.9c0-2.8-0.9-4.6-3.3-4.6
		c-2.4,0-3.6,2.2-3.6,5.2v14.9H106V11z"/>
	<path fill="#FFFFFF" d="M161,34.8h-0.1v3.6h-9.2V0h9.6v13.8h0.2c1.8-2.4,4.3-3.7,7.8-3.7c6.9,0,10.9,6.2,10.9,14.5
		c0,9.3-4.3,14.7-11.5,14.7C165.7,39.3,162.6,37.9,161,34.8z M170.3,24.5c0-4.4-1.6-7.3-4.5-7.3c-3,0-4.8,2.9-4.8,7.3
		s1.9,7.3,4.8,7.3S170.3,29,170.3,24.5z"/>
	<path fill="#FFFFFF" d="M181.3,24.7c0-8.6,5.7-14.5,13.9-14.5c4.1,0,7.2,1.3,9.6,3.6c3.2,3.1,4.6,7.9,4.5,13.5h-18.4
		c0.4,3.4,2,5.2,4.9,5.2c1.7,0,3.2-0.8,3.8-2.6h9.3c-1.6,6.3-6.5,9.4-13.4,9.4C187,39.2,181.3,33.4,181.3,24.7z M190.9,21.8h8.8
		c-0.2-3.3-2-5-4.3-5C192.7,16.7,191.2,18.6,190.9,21.8z"/>
	<path fill="#FFFFFF" d="M220.2,15.7h0.2c2-3.8,4.6-5.3,7.9-5.3c0.8,0,1.3,0.1,1.6,0.3v8.4h-0.2c-5.7-1-9,1.7-9,7.9v11.5H211V11h9.2
		V15.7z"/>
	<path fill="#FFFFFF" d="M230.9,38.5h9.3c0.4,1.2,1.6,2.3,3.9,2.3c3.1,0,4.2-1.9,4.2-4.8v-2h-0.2c-1.5,1.8-3.6,3.1-6.6,3.1
		c-5.9,0-11.1-4.4-11.1-13c0-7.9,4.2-14,10.6-14c3.7,0,5.9,1.5,7.4,3.8h0.2v-3h9.2v23.8c0,4.4-1.5,7.8-3.8,9.8c-2.4,2.1-5.8,3-9.7,3
		C236.9,47.6,231.8,44.6,230.9,38.5z M248.7,23.7c0-3.4-1.6-6.2-4.4-6.2c-2.7,0-4.4,2.4-4.4,6.2c0,3.7,1.7,6.3,4.4,6.3
		C247,30,248.7,27.3,248.7,23.7z"/>
</g>
</svg>
