<svg xmlns="http://www.w3.org/2000/svg" width="16" height="19" viewBox="0 0 16 19">
    <defs>
        <linearGradient id="a" x1="25.65%" x2="83.008%" y1="8.39%" y2="100%">
            <stop offset=".058%" stop-color="#E3E7F2"/>
            <stop offset="100%" stop-color="#D0D8EE"/>
        </linearGradient>
    </defs>
    <g fill="none" fill-rule="nonzero">
        <path fill="#8097D8" d="M3.953 0C2.61 0 1.92.76 2.008 1.654c.07.755.73 1.336 1.526 1.346h.745l.651-1.333h3.907L8.2 2.974a.017.017 0 0 0 0 .017.02.02 0 0 0 .016.009H16V0H3.953z" opacity=".498"/>
        <path fill="#FFF" d="M8.433 3.283a.102.102 0 0 0-.07.028.094.094 0 0 0-.03.068l-4-.096h-2C1.598 3.281 1.003 2.708 1 2v15.704c0 .343.142.673.395.916.252.243.595.38.952.38H12V3.283H8.433z"/>
        <path fill="#1B46C2" d="M4.714 1L4 2.303v8.535c0 .073.053.137.13.156.078.02.16-.01.2-.073l1.813-2.755 1.812 2.755a.186.186 0 0 0 .2.073c.077-.02.845-.083.845-.156l-.714-8.535L9 1H4.714z"/>
        <path fill="url(#a)" d="M8.216 3.457L8 11.654c0 .072-.018.265-.094.285L5.568 9.01l-1.783 2.725a.182.182 0 0 1-.197.072.163.163 0 0 1-.129-.154V3.21H2.405c-.23 0-.457-.052-.66-.153a.54.54 0 0 0-.497.005.454.454 0 0 0-.248.394v14.24C1 18.418 1.636 19 2.42 19H14V3.21H8.216c-.058 0 0 .194 0 .247z"/>
        <path fill="#8097D8" d="M14 18h1V3h-.9c-.055 0-.1.041-.1.092v7.929" opacity=".495"/>
        <path fill="#428DFF" d="M4.043 11.939a.603.603 0 0 1-.143-.018c-.23-.056-.388-.243-.386-.457V3.167c0-.05.012-.098.037-.142l.703-1.267a.357.357 0 0 1 .314-.175h4.216c.122 0 .235.057.3.15a.29.29 0 0 1 .015.309l-.666 1.2v8.222c0 .213-.158.4-.386.457a.553.553 0 0 1-.592-.214L5.973 9.482l-1.481 2.226a.534.534 0 0 1-.449.23zm.173-8.697v7.648l1.456-2.186a.378.378 0 0 1 .301-.143c.12 0 .233.053.302.143L7.73 10.89V3.167c0-.05.013-.098.037-.142l.449-.808h-3.43l-.57 1.025z"/>
        <path fill="#1B46C2" d="M15.46 3.483H8.112a.382.382 0 0 1-.314-.157.306.306 0 0 1-.019-.323l.437-.786H4.785l-.606 1.091a.357.357 0 0 1-.314.175H2.007C.997 3.493.14 2.822.01 1.92-.045 1.43.133.941.5.576A2.037 2.037 0 0 1 1.932 0H15.46c.094 0 .183.033.249.093s.103.14.103.224v2.85a.302.302 0 0 1-.103.224.372.372 0 0 1-.249.092zM8.65 2.85h6.459V.633H1.933c-.348.001-.68.135-.912.367a1.03 1.03 0 0 0-.312.856c.091.58.649 1.006 1.298.994h1.64l.607-1.092a.357.357 0 0 1 .314-.175h4.216c.122 0 .235.057.3.15a.29.29 0 0 1 .015.309l-.449.808z"/>
        <path fill="#1B46C2" d="M15.46 19H1.772C.794 18.999.002 18.285 0 17.403V1.9c0-.175.157-.317.351-.317.194 0 .352.142.352.317 0 .524.472.95 1.054.95h2.108c.093 0 .183.033.249.093.065.06.102.14.102.224L4 10.07l1.672-1.366a.378.378 0 0 1 .301-.143c.12 0 .233.053.302.143L8 10.07l-.27-6.809c0-.227.205-.41.457-.411h7.273c.094 0 .183.033.249.093s.103.14.103.224v15.516a.302.302 0 0 1-.103.224.372.372 0 0 1-.249.093zM1 3.93L.703 17.403c0 .532.479.963 1.069.964h13.337V3.483L9 3.76l-.156 7.704c0 .213-.07.418-.299.475-.228.057-.423-.048-.545-.231L5.998 9.933 4 11.708c-.122.183-.258.288-.486.23-.228-.056-.432-.261-.432-.474V3.93H2c.243.598-.192-.033-.243 0-.237.151-.507.17-.757 0z"/>
    </g>
</svg>
