<?xml version="1.0" encoding="UTF-8"?>
<svg width="36px" height="36px" viewBox="0 0 36 36" version="1.1" xmlns="http://www.w3.org/2000/svg" xmlns:xlink="http://www.w3.org/1999/xlink">
    <!-- Generator: Sketch 61 (89581) - https://sketch.com -->
    <title>analytics</title>
    <desc>Created with Sketch.</desc>
    <defs>
        <linearGradient x1="42.2703086%" y1="8.54916771%" x2="216.016793%" y2="100%" id="linearGradient-1">
            <stop stop-color="#E3E7F2" offset="0.0580658784%"></stop>
            <stop stop-color="#D0D8EE" offset="100%"></stop>
        </linearGradient>
        <linearGradient x1="47.8508747%" y1="8.38967734%" x2="94.4172752%" y2="100%" id="linearGradient-2">
            <stop stop-color="#E3E7F2" offset="0.0580658784%"></stop>
            <stop stop-color="#D0D8EE" offset="100%"></stop>
        </linearGradient>
        <linearGradient x1="46.5834544%" y1="8.38967734%" x2="120.611818%" y2="100%" id="linearGradient-3">
            <stop stop-color="#E3E7F2" offset="0.0580658784%"></stop>
            <stop stop-color="#D0D8EE" offset="100%"></stop>
        </linearGradient>
        <linearGradient x1="48.1193032%" y1="8.38967734%" x2="88.8695006%" y2="100%" id="linearGradient-4">
            <stop stop-color="#E3E7F2" offset="0.0580658784%"></stop>
            <stop stop-color="#D0D8EE" offset="100%"></stop>
        </linearGradient>
    </defs>
    <g id="Home-Revamp" stroke="none" stroke-width="1" fill="none" fill-rule="evenodd">
        <g id="LandingPage-Elrond-Revamp" transform="translate(-923.000000, -811.000000)" fill-rule="nonzero">
            <g id="Inline-menu" transform="translate(508.000000, 766.000000)">
                <g id="analytics" transform="translate(415.000000, 45.000000)">
                    <g id="Group" transform="translate(0.560311, 0.630350)">
                        <path d="M6.01634241,26.9371751 L6.01634241,34.7068016 L0.0397120623,34.7068016 L0.0397120623,26.9371751 C0.0416731518,26.2778288 0.575649805,25.7437821 1.23506615,25.741821 L4.82105837,25.741821 C5.48040467,25.7437821 6.01445136,26.2778288 6.01634241,26.9371751 Z" id="Path" fill="#8097D8" opacity="0.497372582"></path>
                        <path d="M4.2233463,26.9371751 L4.2233463,34.7068016 L0.0397120623,34.7068016 L0.0397120623,26.9371751 C0.0416731518,26.2778288 0.575649805,25.7437821 1.23506615,25.741821 L3.02806226,25.741821 C3.68740856,25.7437821 4.22145525,26.2778288 4.2233463,26.9371751 Z" id="Path" fill="url(#linearGradient-1)"></path>
                        <path d="M15.579035,18.5699066 L15.579035,34.7068716 L9.60233463,34.7068716 L9.60233463,18.5699066 C9.60429572,17.9105603 10.1382724,17.3765136 10.7976887,17.3745525 L14.3836809,17.3745525 C15.0430272,17.3764436 15.5770739,17.9104903 15.579035,18.5699066 Z" id="Path" fill="#8097D8" opacity="0.497372582"></path>
                        <path d="M13.7860389,18.5699066 L13.7860389,34.7068716 L9.60233463,34.7068716 L9.60233463,18.5699066 C9.60429572,17.9105603 10.1382724,17.3765136 10.7976887,17.3745525 L12.5906848,17.3745525 C13.2500311,17.3764436 13.7840778,17.9104903 13.7860389,18.5699066 Z" id="Path" fill="url(#linearGradient-2)"></path>
                        <path d="M25.1416576,22.1558988 L25.1416576,34.7068716 L19.1650272,34.7068716 L19.1650272,22.1558988 C19.1669183,21.4965525 19.700965,20.9625058 20.3603813,20.9605447 L23.9463735,20.9605447 C24.6056498,20.9624358 25.1396965,21.4964825 25.1416576,22.1558988 Z" id="Path" fill="#8097D8" opacity="0.497372582"></path>
                        <path d="M23.3486615,22.1558988 L23.3486615,34.7068716 L19.1650272,34.7068716 L19.1650272,22.1558988 C19.1669183,21.4965525 19.700965,20.9625058 20.3603813,20.9605447 L22.1533774,20.9605447 C22.8126537,20.9624358 23.3467004,21.4964825 23.3486615,22.1558988 Z" id="Path" fill="url(#linearGradient-3)"></path>
                        <path d="M34.7042802,17.3745525 L34.7042802,34.7068716 L28.7276498,34.7068716 L28.7276498,17.3745525 C28.7295409,16.7152062 29.2635875,16.1811595 29.9230039,16.1791984 L33.5089961,16.1791984 C34.1683424,16.1811595 34.7023891,16.7152062 34.7042802,17.3745525 Z" id="Path" fill="#8097D8" opacity="0.497372582"></path>
                        <g>
                            <path d="M32.911284,17.3745525 L32.911284,34.7068716 L28.7276498,34.7068716 L28.7276498,17.3745525 C28.7295409,16.7152062 29.2635875,16.1811595 29.9230039,16.1791984 L31.716,16.1791984 C32.3753463,16.1811595 32.909393,16.7152062 32.911284,17.3745525 Z" id="Path" fill="url(#linearGradient-4)"></path>
                            <circle id="Oval" fill="#1B46C2" cx="3.02806226" cy="14.3862023" r="2.98835019"></circle>
                            <circle id="Oval" fill="#1B46C2" cx="12.5906848" cy="3.03058366" r="2.98835019"></circle>
                            <circle id="Oval" fill="#1B46C2" cx="31.716" cy="4.22593774" r="2.98835019"></circle>
                            <circle id="Oval" fill="#1B46C2" cx="22.1533074" cy="10.2025681" r="2.98835019"></circle>
                        </g>
                        <g id="Path">
                            <path d="M3.02806226,25.741821 C2.36871595,25.7438521 1.83466926,26.2778288 1.83270817,26.9372451 L1.83270817,34.7068716 L0.0397120623,34.7068716 L0.0397120623,26.9371751 C0.0416731518,26.2778288 0.575649805,25.7437821 1.23506615,25.741821 L3.02806226,25.741821 L3.02806226,25.741821 Z" fill="#FFFFFF"></path>
                            <path d="M12.5906848,17.3745525 C11.9313385,17.3765136 11.3972918,17.9104903 11.3953307,18.5699066 L11.3953307,34.7068716 L9.60233463,34.7068716 L9.60233463,18.5699066 C9.60429572,17.9105603 10.1382724,17.3765136 10.7976887,17.3745525 L12.5906848,17.3745525 L12.5906848,17.3745525 Z" fill="#FFFFFF"></path>
                            <path d="M22.1533074,20.9605447 C21.4939611,20.9624358 20.9599144,21.4964825 20.9579533,22.1558988 L20.9579533,34.7068716 L19.1649572,34.7068716 L19.1649572,22.1558988 C19.1668482,21.4965525 19.7008949,20.9625058 20.3603113,20.9605447 L22.1533074,20.9605447 Z" fill="#FFFFFF"></path>
                            <path d="M31.716,16.1791984 C31.0566537,16.1811595 30.522607,16.7151362 30.5206459,17.3745525 L30.5206459,34.7068716 L28.7276498,34.7068716 L28.7276498,17.3745525 C28.7295409,16.7152062 29.2635875,16.1811595 29.9230039,16.1791984 L31.716,16.1791984 Z" fill="#FFFFFF"></path>
                            <path d="M3.92456031,17.2430895 C3.6334786,17.3293774 3.33161089,17.373642 3.02806226,17.3745525 C1.37766537,17.3745525 0.0397120623,16.0365992 0.0397120623,14.3862023 C0.0397120623,12.7358054 1.37766537,11.3978521 3.02806226,11.3978521 C3.33161089,11.3987626 3.6334786,11.4430272 3.92456031,11.5293152 C2.6791284,11.9238444 1.83270817,13.0796965 1.83270817,14.3861323 C1.83270817,15.6925681 2.67905837,16.8485603 3.92456031,17.2430895 Z" fill="#8097D8" opacity="0.495768229"></path>
                            <path d="M13.4871829,5.88740078 C13.1961012,5.97368872 12.8942335,6.01795331 12.5906848,6.01886381 C10.9402879,6.01886381 9.60233463,4.68091051 9.60233463,3.03051362 C9.60233463,1.38011673 10.9402879,0.0421634241 12.5906848,0.0421634241 C12.8942335,0.04307393 13.1961012,0.0873385214 13.4871829,0.173626459 C12.2416809,0.568225681 11.3953307,1.72414786 11.3953307,3.03058366 C11.3953307,4.33701946 12.2416809,5.49294163 13.4871829,5.88740078 Z" fill="#8097D8" opacity="0.495768229"></path>
                            <path d="M32.6124981,7.08275486 C32.3214163,7.1690428 32.0195486,7.21330739 31.716,7.2142179 C30.6483969,7.2142179 29.6618288,6.64466148 29.1280623,5.72007782 C28.5942257,4.79549416 28.5942257,3.65631128 29.1280623,2.73172763 C29.6618988,1.80714397 30.6483969,1.23758755 31.716,1.23758755 C32.0195486,1.23849805 32.3214163,1.28276265 32.6124981,1.36905058 C31.3670661,1.76357977 30.5206459,2.91943191 30.5206459,4.2258677 C30.5206459,5.5323035 31.3669961,6.68822568 32.6124981,7.08275486 Z" fill="#8097D8" opacity="0.495768229"></path>
                            <path d="M23.0498054,13.0593852 C22.7587237,13.1456732 22.456856,13.1899377 22.1533074,13.1908482 C20.5029105,13.1908482 19.1649572,11.8528949 19.1649572,10.2024981 C19.1649572,8.55210117 20.5029105,7.21414786 22.1533074,7.21414786 C22.456856,7.21505837 22.7587237,7.25932296 23.0498054,7.34561089 C21.8043735,7.74014008 20.9579533,8.89599222 20.9579533,10.202428 C20.9579533,11.5088638 21.8043735,12.6649261 23.0498054,13.0593852 Z" fill="#8097D8" opacity="0.495768229"></path>
                        </g>
                    </g>
                    <g id="Group" fill="#1B46C2">
                        <path d="M5.38136965,25.7745292 L1.79537743,25.7745292 C0.805587549,25.7755798 0.00343190661,26.5777354 0.00238132296,27.5675253 L0.00238132296,35.3371518 C0.00238132296,35.6672451 0.27,35.9347938 0.600023346,35.9347938 L6.5766537,35.9347938 C6.90674708,35.9347938 7.17429572,35.6672451 7.17429572,35.3371518 L7.17429572,27.5675253 C7.17324514,26.5777354 6.37115953,25.7756498 5.38136965,25.7745292 Z M5.97901167,34.7395097 L1.19766537,34.7395097 L1.19766537,27.5675253 C1.1980856,27.237642 1.46542412,26.9703035 1.79530739,26.9698833 L5.38129961,26.9698833 C5.71118288,26.9703035 5.9785214,27.237642 5.97894163,27.5675253 L5.97894163,34.7395097 L5.97901167,34.7395097 Z" id="Shape"></path>
                        <path d="M14.9439922,17.4072607 L11.358,17.4072607 C10.3682101,17.4083113 9.56605447,18.2104669 9.56500389,19.2002568 L9.56500389,35.3372218 C9.56500389,35.6673152 9.83262257,35.9348638 10.1626459,35.9348638 L16.1392763,35.9348638 C16.4693696,35.9348638 16.7369183,35.6673152 16.7369183,35.3372218 L16.7369183,19.2002568 C16.7358677,18.2103969 15.9337821,17.4083113 14.9439922,17.4072607 Z M15.5416342,34.7395097 L10.7602879,34.7395097 L10.7602879,19.2002568 C10.7607082,18.8703735 11.0280467,18.603035 11.35793,18.6026148 L14.9439222,18.6026148 C15.2738054,18.603035 15.541144,18.8703735 15.5415642,19.2002568 L15.5415642,34.7395097 L15.5416342,34.7395097 Z" id="Shape"></path>
                        <path d="M24.5066148,20.9932529 L20.9206226,20.9932529 C19.9308327,20.9943035 19.128677,21.7964591 19.1276265,22.786249 L19.1276265,35.3372218 C19.1276265,35.6673152 19.3952451,35.9348638 19.7252685,35.9348638 L25.7018988,35.9348638 C26.0319922,35.9348638 26.2995409,35.6673152 26.2995409,35.3372218 L26.2995409,22.786249 C26.2985603,21.7963891 25.4964047,20.9943035 24.5066148,20.9932529 Z M25.1043268,34.7395097 L20.3229805,34.7395097 L20.3229805,22.786249 C20.3234008,22.4563658 20.5907393,22.1890272 20.9206226,22.188607 L24.5066148,22.188607 C24.8364981,22.1890272 25.1038366,22.4563658 25.1042568,22.786249 L25.1042568,34.7395097 L25.1043268,34.7395097 Z" id="Shape"></path>
                        <path d="M34.0693074,16.2119066 L30.4833152,16.2119066 C29.4935253,16.2129572 28.6913696,17.0151128 28.6903191,18.0049027 L28.6903191,35.3372218 C28.6903191,35.6673152 28.9578677,35.9348638 29.2879611,35.9348638 L35.2645914,35.9348638 C35.5946848,35.9348638 35.8622335,35.6673152 35.8622335,35.3372218 L35.8622335,18.0049027 C35.8611829,17.0151128 35.0590973,16.2129572 34.0693074,16.2119066 Z M34.6669494,34.7395097 L29.8856031,34.7395097 L29.8856031,18.0049027 C29.8860233,17.6750195 30.1533619,17.4076809 30.4832451,17.4072607 L34.0692374,17.4072607 C34.3991206,17.4076809 34.6664591,17.6750195 34.6668794,18.0049027 L34.6668794,34.7395097 L34.6669494,34.7395097 Z" id="Shape"></path>
                        <path d="M32.2763113,1.27029572 C31.0794864,1.26938521 29.9612451,1.86597665 29.2956654,2.86059922 C28.6300156,3.85522179 28.5049261,5.11648249 28.9622101,6.22246693 L25.3906459,8.4549572 C24.7480389,7.72648249 23.8362023,7.29140078 22.8656732,7.25007782 C21.895144,7.20875486 20.9496887,7.56490272 20.2475486,8.23615564 L16.3357354,5.30229572 C17.1627549,3.70267704 16.6750039,1.73780545 15.1959222,0.710614786 C13.7168405,-0.316575875 11.705393,-0.0874085603 10.4952607,1.24620233 C9.2851284,2.57981323 9.252,4.60400778 10.4176576,5.97663035 L5.40693385,11.9311984 C3.80024125,10.9858132 1.73710506,11.4291595 0.660677043,12.9512451 C-0.415750973,14.4733307 -0.146521401,16.5662335 1.28017121,17.7662101 C2.70686381,18.9661868 4.81496498,18.8728949 6.1300856,17.5516109 C7.44520623,16.2303268 7.52855253,14.1217354 6.32185214,12.700716 L11.3325759,6.74614786 C12.7083502,7.56455253 14.461144,7.36466148 15.6173463,6.25748638 L19.5291595,9.1913463 C18.7678366,10.6660156 19.1181712,12.4704981 20.376,13.5531595 C21.6338288,14.635821 23.4703891,14.7135642 24.8152763,13.741144 C26.1601634,12.7687237 26.6618521,11.0003813 26.02793,9.46659922 L29.5994942,7.23410895 C30.6944125,8.46658366 32.4888794,8.79303502 33.9477198,8.02526848 C35.4065603,7.25750195 36.1534553,5.59351751 35.7575253,3.99319844 C35.3614553,2.39294942 33.9248171,1.26924514 32.2763113,1.27029572 Z M3.58837354,17.4072607 C2.26807004,17.4072607 1.19773541,16.3369261 1.19773541,15.0166226 C1.19773541,13.6963191 2.26807004,12.6259844 3.58837354,12.6259844 C4.90867704,12.6259844 5.97901167,13.6963191 5.97901167,15.0166226 C5.97747082,16.3362957 4.90804669,17.4057198 3.58837354,17.4072607 Z M13.1509961,6.05157198 C11.8306926,6.05157198 10.760358,4.98123735 10.760358,3.66093385 C10.760358,2.34063035 11.8306926,1.27029572 13.1509961,1.27029572 C14.4712996,1.27029572 15.5416342,2.34063035 15.5416342,3.66093385 C15.5401634,4.980607 14.4706693,6.05010117 13.1509961,6.05157198 Z M22.7136187,13.2235564 C21.3933152,13.2235564 20.3229805,12.1532218 20.3229805,10.8329183 C20.3229805,9.51261479 21.3933152,8.44228016 22.7136187,8.44228016 C24.0339222,8.44228016 25.1042568,9.51261479 25.1042568,10.8329183 C25.102786,12.1525914 24.0333619,13.2220856 22.7136187,13.2235564 Z M32.2763113,7.24692607 C30.9560078,7.24692607 29.8856732,6.17659144 29.8856732,4.85628794 C29.8856732,3.53598444 30.9560078,2.46564981 32.2763113,2.46564981 C33.5966148,2.46564981 34.6669494,3.53598444 34.6669494,4.85628794 C34.6654086,6.17596109 33.5959844,7.24538521 32.2763113,7.24692607 Z" id="Shape"></path>
                    </g>
                </g>
            </g>
        </g>
    </g>
</svg>