<?xml version="1.0" encoding="UTF-8"?>
<svg width="36px" height="32px" viewBox="0 0 36 32" version="1.1" xmlns="http://www.w3.org/2000/svg" xmlns:xlink="http://www.w3.org/1999/xlink">
    <!-- Generator: Sketch 61 (89581) - https://sketch.com -->
    <title>analytics (1)</title>
    <desc>Created with Sketch.</desc>
    <defs>
        <linearGradient x1="17.4081599%" y1="8.38967734%" x2="94.1800044%" y2="100%" id="linearGradient-1">
            <stop stop-color="#E3E7F2" offset="0.0580658784%"></stop>
            <stop stop-color="#D0D8EE" offset="100%"></stop>
        </linearGradient>
    </defs>
    <g id="Home-Revamp" stroke="none" stroke-width="1" fill="none" fill-rule="evenodd">
        <g id="LandingPage-Elrond-Revamp" transform="translate(-449.000000, -6211.000000)" fill-rule="nonzero">
            <g id="A-Token-to-Fuel-the-Elrond-Economy" transform="translate(167.000000, 6007.000000)">
                <g id="Market-Cap" transform="translate(254.000000, 180.000000)">
                    <g id="analytics-(1)" transform="translate(28.000000, 24.000000)">
                        <g id="Group" transform="translate(0.562500, 0.562500)">
                            <path d="M3.63747656,0.0468984375 L31.2374531,0.0468984375 C31.9002187,0.0468984375 32.4374766,0.58415625 32.4374766,1.24692187 L32.4374766,28.8468984 C32.4374766,29.5096641 31.9002187,30.0469219 31.2374531,30.0469219 L3.63747656,30.0469219 C2.97471094,30.0469219 2.43745312,29.5096641 2.43745312,28.8468984 L2.43745312,1.24685156 C2.43745312,0.58415625 2.97478125,0.0468984375 3.63747656,0.0468984375 Z" id="Path" fill="#8097D8" opacity="0.5"></path>
                            <path d="M3.63747656,0.0468984375 L29.4374531,0.0468984375 C30.1002187,0.0468984375 30.6374766,0.58415625 30.6374766,1.24692187 L30.6374766,28.8468984 C30.6374766,29.5096641 30.1002187,30.0469219 29.4374531,30.0469219 L3.63747656,30.0469219 C2.97471094,30.0469219 2.43745312,29.5096641 2.43745312,28.8468984 L2.43745312,1.24685156 C2.43745312,0.58415625 2.97478125,0.0468984375 3.63747656,0.0468984375 Z" id="Path" fill="url(#linearGradient-1)"></path>
                            <polygon id="Path" fill="#1B46C2" points="10.2375 12.166875 2.9835 19.8468984 4.73547656 21.5568984 11.6535234 14.2308984 13.9334766 14.0628516 19.8554766 18.9468984 24.6375 19.2108516 32.3715234 6.640875 30.3255 5.38685156 23.1615 17.0328516 21.3134766 17.0388984 21.3075 17.0388984 15.0314766 11.8668516"></polygon>
                            <g transform="translate(0.000000, 1.828125)" fill="#E3E7F2" id="Oval">
                                <circle cx="12.6374766" cy="10.2187266" r="2.39997656"></circle>
                                <circle cx="22.2375234" cy="17.4187266" r="2.39997656"></circle>
                                <circle cx="32.4374766" cy="2.41875" r="2.39997656"></circle>
                                <circle cx="2.43752344" cy="20.41875" r="2.39997656"></circle>
                            </g>
                            <path d="M5.43747656,30.0468516 L3.63747656,30.0468516 C2.97555469,30.0448828 2.43942187,29.5088203 2.43745312,28.8468281 L2.43745312,24.6468516 C1.11199219,24.6468516 0.0374765625,23.5723359 0.0374765625,22.246875 C0.0374765625,20.9214141 1.11199219,19.8468984 2.43745312,19.8468984 L2.43745312,1.24685156 C2.43942187,0.584929687 2.97548437,0.048796875 3.63747656,0.046828125 L5.43747656,0.046828125 C4.77555469,0.048796875 4.23942187,0.584859375 4.23745312,1.24685156 L4.23745312,19.8468281 C2.91199219,19.8468281 1.83747656,20.9213438 1.83747656,22.2468047 C1.83747656,23.5722656 2.91199219,24.6467813 4.23745312,24.6467813 L4.23745312,28.8467578 C4.23942187,29.5088203 4.77555469,30.0449531 5.43747656,30.0468516 Z" id="Path" fill="#FFFFFF"></path>
                        </g>
                        <g id="Group">
                            <polygon id="Path" fill="#FFFFFF" points="3.6 1.80935156 3.6 9.60939844 3.6 20.4093984 2.39997656 20.4093984 2.39997656 9.60939844 2.39997656 1.80935156"></polygon>
                            <g fill="#1B46C2" id="Shape">
                                <path d="M33.6000234,1.80942187 C33.5989688,0.815765625 32.7936797,0.0104765625 31.8000234,0.009421875 L4.19997656,0.009421875 C3.20632031,0.0104765625 2.40103125,0.815765625 2.39997656,1.80942187 L2.39997656,4.20939844 C2.39997656,4.54078125 2.66864062,4.809375 2.99995312,4.809375 C3.33126562,4.809375 3.6,4.54078125 3.6,4.20939844 L3.6,1.80935156 C3.60035156,1.47810937 3.86873438,1.20965625 4.19997656,1.209375 L31.7999531,1.209375 C32.1311953,1.20972656 32.3996484,1.47810937 32.3999297,1.80935156 L32.3999297,1.86996094 C31.0042266,2.15683594 30.0019219,3.38442187 29.9999531,4.80930469 C30.0015703,5.18364844 30.0738516,5.55433594 30.2130703,5.90189062 L23.4556875,16.8865313 C22.9754531,16.7701641 22.4727188,16.7855625 22.0005703,16.93125 L16.1494453,12.1095703 C15.8942109,10.5808359 14.5141875,9.49978125 12.9687188,9.61811719 C11.4233203,9.73645312 10.2239297,11.0150156 10.2044531,12.5648437 L3.6,19.5571406 L3.6,4.20939844 C3.6,3.87801562 3.33133594,3.60942187 3.00002344,3.60942187 C2.66871094,3.60942187 2.40004688,3.87808594 2.40004688,4.20939844 L2.40004688,19.8699609 C1.00321875,20.1551484 0,21.3837891 0,22.809375 C0,24.2349609 1.00321875,25.4636016 2.39997656,25.7487187 L2.39997656,29.4093984 C2.40103125,30.4030547 3.20632031,31.2083437 4.19997656,31.2093984 L31.7999531,31.2093984 C32.7936094,31.2083437 33.5988984,30.4030547 33.5999531,29.4093984 L33.5999531,7.74871875 C34.9967813,7.46367187 36,6.23496094 36,4.809375 C36,3.38378906 34.9967813,2.15514844 33.6000234,1.87003125 L33.6000234,1.80942187 Z M30.9525469,6.98983594 C31.2474375,7.26588281 31.5952031,7.47928125 31.9748906,7.61730469 L25.3890703,18.3212578 C25.17975,17.9552812 24.8958984,17.6373984 24.5557969,17.3882812 L30.9525469,6.98983594 Z M24.6000234,19.8093516 C24.6000234,20.8034297 23.7941016,21.6093516 22.8000234,21.6093516 C21.8059453,21.6093516 21.0000234,20.8034297 21.0000234,19.8093516 C21.0000234,18.8152734 21.8059453,18.0093516 22.8000234,18.0093516 C23.7936797,18.0104766 24.5988984,18.8156953 24.6000234,19.8093516 Z M20.1211172,18.4864219 L15.4197422,14.6091094 C15.6919219,14.3064844 15.8993437,13.9513359 16.0292812,13.5656016 L20.8561641,17.5433906 C20.550375,17.8052344 20.3004141,18.1259297 20.1211172,18.4864219 Z M13.1999766,10.8093516 C14.1940547,10.8093516 14.9999766,11.6152734 14.9999766,12.6093516 C14.9999766,13.6034297 14.1940547,14.4093516 13.1999766,14.4093516 C12.2058281,14.4093516 11.3999766,13.6034297 11.3999766,12.6093516 C11.4011016,11.6156953 12.2063203,10.8104766 13.1999766,10.8093516 Z M4.57769531,20.2689844 L10.5363281,13.9604062 C10.7206875,14.3218828 10.9765547,14.6421562 11.2883203,14.9018906 L5.44816406,21.0862969 C5.21542969,20.7585 4.91948437,20.480625 4.57769531,20.2689844 Z M1.20002344,22.809375 C1.20002344,21.8152969 2.00594531,21.009375 3.00002344,21.009375 C3.99410156,21.009375 4.80002344,21.8152969 4.80002344,22.809375 C4.80002344,23.8034531 3.99410156,24.609375 3.00002344,24.609375 C2.00636719,24.6083203 1.20107813,23.8030312 1.20002344,22.809375 Z M31.8000234,30.009375 L4.19997656,30.009375 C3.86873437,30.0090234 3.6,29.7406406 3.6,29.4093984 L3.6,25.7487891 C4.36830469,25.6035937 5.04738281,25.1590781 5.48789062,24.5131172 C5.92839844,23.8671562 6.09426562,23.072625 5.94892969,22.3043906 L12.3895547,15.4840781 C13.0613203,15.6909375 13.7860312,15.6405937 14.4227109,15.34275 L19.8029531,19.7799609 C19.8028125,19.7900156 19.8,19.7992969 19.8,19.8093516 C19.7967656,21.4340625 21.0898828,22.7647969 22.7139609,22.8081797 C24.3380391,22.8515625 25.7003437,21.5917031 25.783875,19.9691719 L32.4,9.21585937 L32.4,29.4093281 C32.3996484,29.7406406 32.1312656,30.0090234 31.8000234,30.009375 Z M32.9999766,6.609375 C32.0058984,6.609375 31.1999766,5.80345312 31.1999766,4.809375 C31.1999766,3.81529688 32.0058984,3.009375 32.9999766,3.009375 C33.9940547,3.009375 34.7999766,3.81529688 34.7999766,4.809375 C34.7989219,5.80303125 33.9937031,6.60832031 32.9999766,6.609375 Z"></path>
                            </g>
                        </g>
                    </g>
                </g>
            </g>
        </g>
    </g>
</svg>