<svg xmlns="http://www.w3.org/2000/svg" width="19" height="12" viewBox="0 0 19 12">
    <g fill="#1B46C2" fill-rule="nonzero">
        <path d="M6.08.491a1.665 1.665 0 0 0-2.347.181L.403 4.558a1.656 1.656 0 0 0 0 2.164l3.33 3.885A1.665 1.665 0 0 0 6.26 8.44L3.86 5.64l2.401-2.8A1.665 1.665 0 0 0 6.081.49zm-.662 1.626l-2.71 3.164a.555.555 0 0 0 0 .721l2.71 3.164a.555.555 0 1 1-.843.721l-3.33-3.885a.552.552 0 0 1 0-.721l3.33-3.885a.555.555 0 1 1 .843.721zM12.904 10.79c.698.599 1.75.518 2.348-.18l3.33-3.886a1.655 1.655 0 0 0 0-2.167L15.252.672a1.665 1.665 0 0 0-2.528 2.167l2.4 2.802-2.4 2.802a1.665 1.665 0 0 0 .18 2.347z"/>
        <path d="M13.566 9.165L16.276 6a.555.555 0 0 0 0-.721l-2.71-3.164a.555.555 0 0 1 .843-.722l3.33 3.886c.179.207.179.514 0 .721l-3.33 3.885a.555.555 0 1 1-.843-.721zM8.334 10.544L9.999.554a.555.555 0 1 1 1.094.183l-1.665 9.99a.555.555 0 1 1-1.094-.183z"/>
    </g>
</svg>
