<?xml version="1.0" encoding="UTF-8"?>
<svg width="18px" height="10px" viewBox="0 0 18 10" version="1.1" xmlns="http://www.w3.org/2000/svg" xmlns:xlink="http://www.w3.org/1999/xlink">
    <!-- Generator: Sketch 61 (89581) - https://sketch.com -->
    <title>Shape</title>
    <desc>Created with Sketch.</desc>
    <g id="Home-Revamp" stroke="none" stroke-width="1" fill="none" fill-rule="evenodd">
        <g id="LandingPage-Elrond-Revamp" transform="translate(-512.000000, -3440.000000)" fill="#9DA0B8" fill-rule="nonzero">
            <g id="Developer-First" transform="translate(-65.000000, 2698.000000)">
                <g id="GitHub-stuff" transform="translate(224.000000, 723.000000)">
                    <g id="Commits" transform="translate(353.000000, 17.000000)">
                        <path d="M13.9628571,5.75 C13.3842857,3.6 11.3914286,2 9,2 C6.60857143,2 4.61571429,3.6 4.03714286,5.75 L0,5.75 L0,8.25 L4.03714286,8.25 C4.61571429,10.4 6.60857143,12 9,12 C11.3914286,12 13.3842857,10.4 13.9628571,8.25 L18,8.25 L18,5.75 L13.9628571,5.75 Z M9,9.75 C7.43142857,9.75 6.17142857,8.525 6.17142857,7 C6.17142857,5.475 7.43142857,4.25 9,4.25 C10.5685714,4.25 11.8285714,5.475 11.8285714,7 C11.8285714,8.525 10.5685714,9.75 9,9.75 L9,9.75 Z" id="Shape"></path>
                    </g>
                </g>
            </g>
        </g>
    </g>
</svg>