<?xml version="1.0" encoding="UTF-8"?>
<svg width="36px" height="35px" viewBox="0 0 36 35" version="1.1" xmlns="http://www.w3.org/2000/svg" xmlns:xlink="http://www.w3.org/1999/xlink">
    <!-- Generator: Sketch 61 (89581) - https://sketch.com -->
    <title>web-design</title>
    <desc>Created with Sketch.</desc>
    <defs>
        <linearGradient x1="13.1147161%" y1="25.7354129%" x2="100%" y2="79.1569322%" id="linearGradient-1">
            <stop stop-color="#E3E7F2" offset="0.0580658784%"></stop>
            <stop stop-color="#D0D8EE" offset="100%"></stop>
        </linearGradient>
    </defs>
    <g id="Home-Revamp" stroke="none" stroke-width="1" fill="none" fill-rule="evenodd">
        <g id="LandingPage-Elrond-Revamp" transform="translate(-738.000000, -812.000000)" fill-rule="nonzero">
            <g id="Inline-menu" transform="translate(508.000000, 766.000000)">
                <g id="web-design" transform="translate(230.000000, 46.000000)">
                    <path d="M35.3998718,6.60003666 L35.3998718,29.3999633 C35.3998718,30.7254639 34.325409,31.7999268 32.9999084,31.7999268 L3.00009157,31.7999268 C1.67459105,31.7999268 0.600128156,30.7254639 0.600128156,29.3999633 L0.600128156,6.60003666 L35.3998718,6.60003666 Z" id="Path" fill="#B2C6EE"></path>
                    <path d="M33.6000367,6.60003666 L33.6000367,29.3999633 C33.6000367,30.7254639 32.5255738,31.7999268 31.2000732,31.7999268 L3.00009157,31.7999268 C1.67459105,31.7999268 0.600128156,30.7254639 0.600128156,29.3999633 L0.600128156,6.60003666 L33.6000367,6.60003666 Z" id="Path" fill="url(#linearGradient-1)"></path>
                    <path d="M35.3998718,3.00009157 L35.3998718,7.80001833 L0.600128156,7.80001833 L0.600128156,3.00009157 C0.600128156,1.67459105 1.67459105,0.600128156 3.00009157,0.600128156 L32.9999084,0.600128156 C34.325409,0.600128156 35.3998718,1.67459105 35.3998718,3.00009157 Z" id="Path" fill="#A4C2F7"></path>
                    <path d="M33.6000367,3.00009157 L33.6000367,7.80001833 L0.600128156,7.80001833 L0.600128156,3.00009157 C0.600128156,1.67459105 1.67459105,0.600128156 3.00009157,0.600128156 L31.2000732,0.600128156 C32.5255738,0.600128156 33.6000367,1.67459105 33.6000367,3.00009157 Z" id="Path" fill="#E3E7F2"></path>
                    <path d="M5.40005491,4.20007324 C5.40005491,4.86282347 4.86282347,5.40005491 4.20007324,5.40005491 C3.53732302,5.40005491 3.00009157,4.86282347 3.00009157,4.20007324 C3.00009157,3.53732302 3.53732302,3.00009157 4.20007324,3.00009157 C4.86282347,3.00009157 5.40005491,3.53732302 5.40005491,4.20007324 Z" id="Path" fill="#E3E7F2"></path>
                    <path d="M10.1999817,4.20007324 C10.1999817,4.86282347 9.66275023,5.40005491 9,5.40005491 C8.33724977,5.40005491 7.80001833,4.86282347 7.80001833,4.20007324 C7.80001833,3.53732302 8.33724977,3.00009157 9,3.00009157 C9.66275023,3.00009157 10.1999817,3.53732302 10.1999817,4.20007324 Z" id="Path" fill="#E3E7F2"></path>
                    <path d="M14.9999084,4.20007324 C14.9999084,4.86282347 14.462677,5.40005491 13.7999268,5.40005491 C13.1371765,5.40005491 12.5999451,4.86282347 12.5999451,4.20007324 C12.5999451,3.53732302 13.1371765,3.00009157 13.7999268,3.00009157 C14.462677,3.00009157 14.9999084,3.53732302 14.9999084,4.20007324 Z" id="Path" fill="#E3E7F2"></path>
                    <polygon id="Path" fill="#A4C2F7" points="21.0000916 25.8000183 34.1998902 25.8000183 34.1998902 29.3999633 21.0000916 29.3999633"></polygon>
                    <polygon id="Path" fill="#E3E7F2" points="21.0000916 25.8000183 32.4000549 25.8000183 32.4000549 29.3999633 21.0000916 29.3999633"></polygon>
                    <path d="M21.0000916,21.5999451 L34.1998902,21.5999451 C34.8626404,21.5999451 35.3998718,22.1371765 35.3998718,22.7999268 L35.3998718,25.1998902 C35.3998718,25.8626404 34.8626404,26.3998718 34.1998902,26.3998718 L21.0000916,26.3998718 C20.3373413,26.3998718 19.8001098,25.8626404 19.8001098,25.1998902 L19.8001098,22.7999268 C19.8001098,22.1371765 20.3373413,21.5999451 21.0000916,21.5999451 L21.0000916,21.5999451 Z" id="Path" fill="#A4C2F7"></path>
                    <path d="M21.0000916,28.8001098 L34.1998902,28.8001098 C34.8626404,28.8001098 35.3998718,29.3373413 35.3998718,30.0000916 L35.3998718,32.4000549 C35.3998718,33.0628051 34.8626404,33.6000367 34.1998902,33.6000367 L21.0000916,33.6000367 C20.3373413,33.6000367 19.8001098,33.0628051 19.8001098,32.4000549 L19.8001098,30.0000916 C19.8001098,29.3373413 20.3373413,28.8001098 21.0000916,28.8001098 L21.0000916,28.8001098 Z" id="Path" fill="#A4C2F7"></path>
                    <path d="M21.0000916,21.5999451 L32.4000549,21.5999451 C33.0628051,21.5999451 33.6000367,22.1371765 33.6000367,22.7999268 L33.6000367,25.1998902 C33.6000367,25.8626404 33.0628051,26.3998718 32.4000549,26.3998718 L21.0000916,26.3998718 C20.3373413,26.3998718 19.8001098,25.8626404 19.8001098,25.1998902 L19.8001098,22.7999268 C19.8001098,22.1371765 20.3373413,21.5999451 21.0000916,21.5999451 L21.0000916,21.5999451 Z" id="Path" fill="#E3E7F2"></path>
                    <path d="M21.0000916,28.8001098 L32.4000549,28.8001098 C33.0628051,28.8001098 33.6000367,29.3373413 33.6000367,30.0000916 L33.6000367,32.4000549 C33.6000367,33.0628051 33.0628051,33.6000367 32.4000549,33.6000367 L21.0000916,33.6000367 C20.3373413,33.6000367 19.8001098,33.0628051 19.8001098,32.4000549 L19.8001098,30.0000916 C19.8001098,29.3373413 20.3373413,28.8001098 21.0000916,28.8001098 Z" id="Path" fill="#E3E7F2"></path>
                    <path d="M3.00009157,31.7999268 L4.79992676,31.7999268 C3.47442623,31.7999268 2.39996334,30.7254639 2.39996334,29.3999633 L2.39996334,3.00009157 C2.39996334,1.67459105 3.47442623,0.600128156 4.79992676,0.600128156 L3.00009157,0.600128156 C1.67459105,0.600128156 0.600128156,1.67459105 0.600128156,3.00009157 L0.600128156,29.3999633 C0.600128156,30.7254639 1.67459105,31.7999268 3.00009157,31.7999268 Z" id="Path" fill="#FFFFFF"></path>
                    <polygon id="Path" fill="#FFFFFF" points="1.19998167 12.0000916 1.19998167 29.3983154 0 29.3983154 0 12.0000916"></polygon>
                    <g id="Group">
                        <path d="M4.20007324,2.39996334 C3.20581055,2.39996334 2.39996334,3.20581055 2.39996334,4.20007324 C2.39996334,5.1940613 3.20581055,5.99990843 4.20007324,5.99990843 C5.1940613,5.99990843 5.99990843,5.1940613 5.99990843,4.20007324 C5.99990843,3.20581055 5.1940613,2.39996334 4.20007324,2.39996334 Z M4.20007324,4.79992676 C3.86856077,4.79992676 3.59994509,4.531311 3.59994509,4.20007324 C3.59994509,3.86856077 3.86856077,3.59994509 4.20007324,3.59994509 C4.531311,3.59994509 4.79992676,3.86856077 4.79992676,4.20007324 C4.79992676,4.531311 4.531311,4.79992676 4.20007324,4.79992676 Z" id="Shape" fill="#1B46C2"></path>
                        <path d="M9,2.39996334 C8.00601195,2.39996334 7.19989017,3.20581055 7.19989017,4.20007324 C7.19989017,5.1940613 8.00601195,5.99990843 9,5.99990843 C9.99398805,5.99990843 10.8001098,5.1940613 10.8001098,4.20007324 C10.8001098,3.20581055 9.99398805,2.39996334 9,2.39996334 Z M9,4.79992676 C8.66876217,4.79992676 8.39987184,4.531311 8.39987184,4.20007324 C8.39987184,3.86856077 8.66876217,3.59994509 9,3.59994509 C9.33123783,3.59994509 9.60012816,3.86856077 9.60012816,4.20007324 C9.60012816,4.531311 9.33123783,4.79992676 9,4.79992676 Z" id="Shape" fill="#1B46C2"></path>
                        <path d="M13.7999268,2.39996334 C12.8059387,2.39996334 12.0000916,3.20581055 12.0000916,4.20007324 C12.0000916,5.1940613 12.8059387,5.99990843 13.7999268,5.99990843 C14.7941895,5.99990843 15.6000367,5.1940613 15.6000367,4.20007324 C15.6000367,3.20581055 14.7941895,2.39996334 13.7999268,2.39996334 Z M13.7999268,4.79992676 C13.468689,4.79992676 13.2000732,4.531311 13.2000732,4.20007324 C13.2000732,3.86856077 13.468689,3.59994509 13.7999268,3.59994509 C14.1314392,3.59994509 14.4000549,3.86856077 14.4000549,4.20007324 C14.4000549,4.531311 14.1314392,4.79992676 13.7999268,4.79992676 Z" id="Shape" fill="#1B46C2"></path>
                        <path d="M25.8000183,3.59994509 L19.8001098,3.59994509 C19.4685974,3.59994509 19.1999817,3.86856077 19.1999817,4.20007324 C19.1999817,4.531311 19.4685974,4.79992676 19.8001098,4.79992676 L25.8000183,4.79992676 C26.1312561,4.79992676 26.3998718,4.531311 26.3998718,4.20007324 C26.3998718,3.86856077 26.1312561,3.59994509 25.8000183,3.59994509 L25.8000183,3.59994509 Z" id="Path" fill="#8097D8"></path>
                        <path d="M32.4000549,3.59994509 L28.1999817,3.59994509 C27.8687439,3.59994509 27.6001282,3.86856077 27.6001282,4.20007324 C27.6001282,4.531311 27.8687439,4.79992676 28.1999817,4.79992676 L32.4000549,4.79992676 C32.7312927,4.79992676 32.9999084,4.531311 32.9999084,4.20007324 C32.9999084,3.86856077 32.7312927,3.59994509 32.4000549,3.59994509 Z" id="Path" fill="#1B46C2"></path>
                        <path d="M0.600128156,17.3998718 C0.758880633,17.3976746 0.911041242,17.3356018 1.02612305,17.2260132 C1.25793457,16.9895325 1.25793457,16.6105041 1.02612305,16.3740234 L0.936035156,16.302063 C0.902526891,16.2792664 0.866271937,16.2611389 0.8280945,16.2479553 C0.794036883,16.2306519 0.757507359,16.2185669 0.719879133,16.2119751 C0.680328352,16.2053833 0.640228289,16.2012634 0.600128156,16.1998902 C0.441101109,16.2023621 0.28894043,16.2644348 0.174133266,16.3740234 C0.119750977,16.431427 0.0769042969,16.4984436 0.0480652031,16.572052 C-0.0425720391,16.7958984 0.00686645156,17.0518799 0.174133266,17.2260132 C0.231262172,17.2801209 0.298553484,17.3229675 0.371887172,17.3520813 C0.444122297,17.382843 0.521575945,17.3990479 0.600128156,17.3998718 Z" id="Path" fill="#428DFF"></path>
                        <path d="M32.9999084,0 L3.00009157,0 C1.34390257,0.00192261094 0.00192261094,1.34390257 -2.84217094e-14,3.00009157 L-2.84217094e-14,14.4000549 C-2.84217094e-14,14.7312927 0.268615687,14.9999084 0.600128156,14.9999084 C0.931365984,14.9999084 1.19998167,14.7312927 1.19998167,14.4000549 L1.19998167,8.39987184 L34.8000183,8.39987184 L34.8000183,18.6001282 C34.8000183,18.9313659 35.068634,19.1999817 35.3998718,19.1999817 C35.7313843,19.1999817 36,18.9313659 36,18.6001282 L36,3.00009157 C35.9980774,1.34390257 34.6560974,0.00192261094 32.9999084,0 Z M1.19998167,7.19989017 L1.19998167,3.00009157 C1.19998167,2.00582887 2.00582887,1.19998167 3.00009157,1.19998167 L32.9999084,1.19998167 C33.9941711,1.19998167 34.8000183,2.00582887 34.8000183,3.00009157 L34.8000183,7.19989017 L1.19998167,7.19989017 Z" id="Shape" fill="#1B46C2"></path>
                        <path d="M17.3998718,32.4000549 C17.7313843,32.4000549 18,32.1314392 18,31.7999268 C18,31.468689 17.7313843,31.2000732 17.3998718,31.2000732 L3.00009157,31.2000732 C2.00582888,31.2000732 1.19998167,30.3942261 1.19998167,29.3999633 L1.19998167,14.3913568 C1.19998169,13.7915033 0.931365984,13.7915033 0.600128156,13.7915033 C0.268615687,13.7915033 0,14.060119 0,14.3913568 L0,29.3999633 C0.00192261094,31.0561523 1.34390257,32.3981324 3.00009157,32.4000549 L17.3998718,32.4000549 Z" id="Path" fill="#1B46C2"></path>
                        <path d="M5.82412718,9.77453613 C5.58984375,9.5402527 5.20999144,9.5402527 4.97570801,9.77453613 L3.17587282,11.574646 C2.94158939,11.8089295 2.94158939,12.1887817 3.17587282,12.4230652 L4.97570801,14.2229004 C5.21109007,14.4503174 5.58544922,14.4470215 5.8169861,14.2157593 C6.04824827,13.9842224 6.05154417,13.6101379 5.82412718,13.3744812 L4.44836426,12.0000916 L5.82412718,10.6243286 C5.93701172,10.5117188 6.00045778,10.3587341 6.00045778,10.1994324 C6.00045778,10.0401306 5.93701172,9.88714603 5.82412718,9.77453613 Z" id="Path" fill="#1B46C2"></path>
                        <path d="M10.3757629,14.2229004 C10.6100464,14.4571838 10.9898987,14.4571838 11.2241821,14.2229004 L13.024292,12.4230652 C13.2583008,12.1887817 13.2583008,11.8089295 13.024292,11.574646 L11.2241821,9.77453613 C11.0736695,9.61853027 10.8503723,9.55618284 10.6408081,9.61111448 C10.4309692,9.66577148 10.2669983,9.82974241 10.2120666,10.0395813 C10.1574097,10.2491455 10.2197571,10.4724426 10.3757629,10.6229553 L11.7515258,12.0000916 L10.3757629,13.3758545 C10.1423035,13.6098633 10.1423035,13.9888916 10.3757629,14.2229004 Z" id="Path" fill="#1B46C2"></path>
                        <path d="M9.26806641,9.66000368 C9.12579342,9.58886719 8.9609985,9.57705687 8.80993652,9.62731934 C8.65914919,9.6775818 8.53417969,9.7857971 8.4630432,9.92807009 L6.66293337,13.5282898 C6.59179688,13.6705627 6.57998655,13.8353576 6.63052366,13.9864197 C6.68106077,14.1374817 6.78927614,14.2624512 6.93182377,14.333313 C7.01477051,14.3764343 7.10650631,14.3992309 7.19989017,14.4000619 C7.4284058,14.4011535 7.63796995,14.2726135 7.73986816,14.0682678 L9.53997806,10.4683227 C9.61193848,10.3252258 9.6237488,10.1593323 9.57266234,10.0074463 C9.52157595,9.85556032 9.4119873,9.73059082 9.26806641,9.66000368 Z" id="Path" fill="#1B46C2"></path>
                        <path d="M14.9999084,12.0000916 L18,12.0000916 C18.3312378,12.0000916 18.6001282,11.7314758 18.6001282,11.3999633 C18.6001282,11.0687256 18.3312378,10.8001098 18,10.8001098 L14.9999084,10.8001098 C14.6686707,10.8001098 14.4000549,11.0687256 14.4000549,11.3999633 C14.4000549,11.7314758 14.6686707,12.0000916 14.9999084,12.0000916 Z" id="Path" fill="#8097D8"></path>
                        <path d="M21.0000916,12.0000916 C21.3313293,12.0000916 21.5999451,11.7314758 21.5999451,11.3999633 C21.5999451,11.0687256 21.3313293,10.8001098 21.0000916,10.8001098 L20.3999633,10.8001098 C20.0687256,10.8001098 19.8001098,11.0687256 19.8001098,11.3999633 C19.8001098,11.7314758 20.0687256,12.0000916 20.3999633,12.0000916 L21.0000916,12.0000916 Z" id="Path" fill="#8097D8"></path>
                        <path d="M14.9999084,14.9999084 L16.1998902,14.9999084 C16.5314026,14.9999084 16.8000183,14.7312927 16.8000183,14.4000549 C16.8000183,14.0685425 16.5314026,13.7999268 16.1998902,13.7999268 L14.9999084,13.7999268 C14.6686707,13.7999268 14.4000549,14.0685425 14.4000549,14.4000549 C14.4000549,14.7312927 14.6686707,14.9999084 14.9999084,14.9999084 Z" id="Path" fill="#8097D8"></path>
                        <path d="M3.59994509,18 L5.40005491,18 C5.73129274,18 5.99990843,17.7313843 5.99990843,17.3998718 C5.99990843,17.068634 5.73129274,16.8000183 5.40005491,16.8000183 L3.59994509,16.8000183 C3.26870726,16.8000183 3.00009157,17.068634 3.00009157,17.3998718 C3.00009157,17.7313843 3.26870726,18 3.59994509,18 Z" id="Path" fill="#8097D8"></path>
                        <path d="M7.19989017,17.3998718 C7.19989017,17.7313843 7.46850586,18 7.80001833,18 L12.5999451,18 C12.9314575,18 13.2000732,17.7313843 13.2000732,17.3998718 C13.2000732,17.068634 12.9314575,16.8000183 12.5999451,16.8000183 L7.80001833,16.8000183 C7.46850586,16.8000183 7.19989017,17.068634 7.19989017,17.3998718 Z" id="Path" fill="#8097D8"></path>
                        <path d="M14.9999084,18 L17.3998718,18 C17.7313843,18 18,17.7313843 18,17.3998718 C18,17.068634 17.7313843,16.8000183 17.3998718,16.8000183 L14.9999084,16.8000183 C14.6686707,16.8000183 14.4000549,17.068634 14.4000549,17.3998718 C14.4000549,17.7313843 14.6686707,18 14.9999084,18 Z" id="Path" fill="#8097D8"></path>
                        <path d="M3.59994509,23.9999084 L5.40005491,23.9999084 C5.73129274,23.9999084 5.99990843,23.7312927 5.99990843,23.4000549 C5.99990843,23.0685425 5.73129274,22.7999268 5.40005491,22.7999268 L3.59994509,22.7999268 C3.26870726,22.7999268 3.00009157,23.0685425 3.00009157,23.4000549 C3.00009157,23.7312927 3.26870726,23.9999084 3.59994509,23.9999084 L3.59994509,23.9999084 Z" id="Path" fill="#8097D8"></path>
                        <path d="M7.80001833,22.7999268 C7.46850586,22.7999268 7.19989017,23.0685425 7.19989017,23.4000549 C7.19989017,23.7312927 7.46850586,23.9999084 7.80001833,23.9999084 L12.5999451,23.9999084 C12.9314575,23.9999084 13.2000732,23.7312927 13.2000732,23.4000549 C13.2000732,23.0685425 12.9314575,22.7999268 12.5999451,22.7999268 L7.80001833,22.7999268 Z" id="Path" fill="#1B46C2"></path>
                        <path d="M17.3998718,22.7999268 L14.9999084,22.7999268 C14.6686707,22.7999268 14.4000549,23.0685425 14.4000549,23.4000549 C14.4000549,23.7312927 14.6686707,23.9999084 14.9999084,23.9999084 L17.3998718,23.9999084 C17.7313843,23.9999084 18,23.7312927 18,23.4000549 C18,23.0685425 17.7313843,22.7999268 17.3998718,22.7999268 Z" id="Path" fill="#8097D8"></path>
                        <path d="M12.0000916,20.3999633 C12.0000916,20.7314758 12.2687073,21.0000916 12.5999451,21.0000916 L17.3998718,21.0000916 C17.7313843,21.0000916 18,20.7314758 18,20.3999633 C18,20.0687256 17.7313843,19.8001098 17.3998718,19.8001098 L12.5999451,19.8001098 C12.2687073,19.8001098 12.0000916,20.0687256 12.0000916,20.3999633 Z" id="Path" fill="#1B46C2"></path>
                        <path d="M3.59994509,21.0000916 L10.1999817,21.0000916 C10.5314941,21.0000916 10.8001098,20.7314758 10.8001098,20.3999633 C10.8001098,20.0687256 10.5314941,19.8001098 10.1999817,19.8001098 L3.59994509,19.8001098 C3.26870726,19.8001098 3.00009157,20.0687256 3.00009157,20.3999633 C3.00009157,20.7314758 3.26870726,21.0000916 3.59994509,21.0000916 Z" id="Path" fill="#1B46C2"></path>
                        <path d="M20.3999633,21.1105041 C19.6833801,21.363739 19.2032776,22.0399475 19.1999817,22.7999268 L19.1999817,25.1998902 C19.2032776,25.9598694 19.6836547,26.6358032 20.3999633,26.8890381 L20.3999633,28.3103943 C19.6833801,28.5636291 19.2032776,29.2398377 19.1999817,30.0000916 L19.1999817,32.4000549 C19.1999817,33.394043 20.0058289,34.1998902 21.0000916,34.1998902 L34.1998902,34.1998902 C35.1941528,34.1998902 36,33.394043 36,32.4000549 L36,30.0000916 C35.9969787,29.2398377 35.5166016,28.5636291 34.8000183,28.3103943 L34.8000183,26.8876648 C35.5160523,26.6347046 35.9961548,25.9593201 36,25.1998902 L36,22.7999268 C35.9969787,22.0399475 35.5166016,21.363739 34.8000183,21.1105041 L20.3999633,21.1105041 Z M33.6000367,28.1999817 L21.5999451,28.1999817 L21.5999451,27 L33.6000367,27 L33.6000367,28.1999817 Z" id="Shape" fill="#1B46C2"></path>
                        <path d="M34.8000183,32.4000549 C34.8000183,32.7312927 34.5314026,32.9999084 34.1998902,32.9999084 L21.0000916,32.9999084 C20.6685791,32.9999084 20.3999633,32.7312927 20.3999633,32.4000549 L20.3999633,30.0000916 C20.3999633,29.6685791 20.6685791,29.3999633 21.0000916,29.3999633 L34.1998902,29.3999633 C34.5314026,29.3999633 34.8000183,29.6685791 34.8000183,30.0000916 L34.8000183,32.4000549 Z" id="Path" fill="#1B46C2"></path>
                        <path d="M34.1998902,25.8000183 L21.0000916,25.8000183 C20.6685791,25.8000183 20.3999633,25.5314026 20.3999633,25.1998902 L20.3999633,22.7999268 C20.3999633,22.468689 20.6685791,22.2000732 21.0000916,22.2000732 L34.1998902,22.2000732 C34.5314026,22.2000732 34.8000183,22.468689 34.8000183,22.7999268 L34.8000183,25.1998902 C34.8000183,25.5314026 34.5314026,25.8000183 34.1998902,25.8000183 Z" id="Path" fill="#1B46C2"></path>
                        <path d="M22.7999268,23.4000549 L22.2000732,23.4000549 C21.8685608,23.4000549 21.5999451,23.6686707 21.5999451,23.9999084 C21.5999451,24.3314209 21.8685608,24.6000367 22.2000732,24.6000367 L22.7999268,24.6000367 C23.1314392,24.6000367 23.4000549,24.3314209 23.4000549,23.9999084 C23.4000549,23.6686707 23.1314392,23.4000549 22.7999268,23.4000549 Z" id="Path" fill="#FFFFFF"></path>
                        <path d="M24.9719238,23.4420777 C24.8991394,23.4744873 24.8321228,23.5192566 24.7738953,23.5739136 C24.6634826,23.6884461 24.6011352,23.8408813 24.6000367,23.9999084 C24.6000367,24.3314209 24.8686523,24.6000367 25.1998902,24.6000367 C25.5314026,24.6000367 25.8000183,24.3314209 25.8000183,23.9999084 C25.7989197,23.8408813 25.7365723,23.6884461 25.625885,23.5739136 C25.453125,23.4047242 25.1968689,23.3530883 24.9719238,23.4420777 L24.9719238,23.4420777 Z" id="Path" fill="#FFFFFF"></path>
                        <path d="M32.9999084,23 L27.6001282,23 C27.2686157,23 27,23.2238499 27,23.4998855 C27,23.7761501 27.2686157,24 27.6001282,24 L32.9999084,24 C33.3314209,24 33.6000367,23.7761501 33.6000367,23.4998855 C33.6000367,23.2238499 33.3314209,23 32.9999084,23 L32.9999084,23 Z" id="Path" fill="#1B46C2"></path>
                        <path d="M22.7999268,30.5999451 L22.2000732,30.5999451 C21.8685608,30.5999451 21.5999451,30.8685608 21.5999451,31.2000732 C21.5999451,31.531311 21.8685608,31.7999268 22.2000732,31.7999268 L22.7999268,31.7999268 C23.1314392,31.7999268 23.4000549,31.531311 23.4000549,31.2000732 C23.4000549,30.8685608 23.1314392,30.5999451 22.7999268,30.5999451 L22.7999268,30.5999451 Z" id="Path" fill="#FFFFFF"></path>
                        <path d="M24.7738953,30.7740784 C24.6634826,30.8883362 24.6011352,31.0410461 24.6000367,31.2000732 C24.6022339,31.3588257 24.6645813,31.5109863 24.7738953,31.6260681 C24.8323975,31.6790771 24.8994141,31.7216492 24.9719238,31.7521363 C25.044159,31.7826233 25.1216125,31.7991028 25.1998902,31.7999268 C25.3597412,31.8015747 25.5132752,31.7389527 25.6261597,31.6260681 C25.7390442,31.5131836 25.8016662,31.3596496 25.8000183,31.2000732 C25.7989197,31.0410461 25.7365723,30.8883362 25.625885,30.7740784 C25.3852844,30.5518799 25.0144959,30.5518799 24.7738953,30.7740784 L24.7738953,30.7740784 Z" id="Path" fill="#FFFFFF"></path>
                        <path d="M32.9999084,31 L27.6001282,31 C27.2686157,31 27,31.2238498 27,31.5001144 C27,31.7761501 27.2686157,32 27.6001282,32 L32.9999084,32 C33.3314209,32 33.6000367,31.7761501 33.6000367,31.5001144 C33.6000367,31.2238498 33.3314209,31 32.9999084,31 L32.9999084,31 Z" id="Path" fill="#1B46C2"></path>
                    </g>
                </g>
            </g>
        </g>
    </g>
</svg>