<svg width="512" height="512" viewBox="0 0 512 512" fill="none" xmlns="http://www.w3.org/2000/svg">
<mask id="mask0" mask-type="alpha" maskUnits="userSpaceOnUse" x="0" y="0" width="512" height="512">
<circle cx="256" cy="256" r="256" fill="black"/>
</mask>
<g mask="url(#mask0)">
<path d="M256 506C397.385 506 512 391.385 512 250C512 108.615 397.385 -6 256 -6C114.615 -6 0 108.615 0 250C0 391.385 114.615 506 256 506Z" fill="#F0F0F0"/>
<mask id="mask1" mask-type="alpha" maskUnits="userSpaceOnUse" x="0" y="0" width="512" height="512">
<path d="M256 512C397.385 512 512 397.385 512 256C512 114.615 397.385 0 256 0C114.615 0 0 114.615 0 256C0 397.385 114.615 512 256 512Z" fill="#F0F0F0"/>
</mask>
<g mask="url(#mask1)">
<rect x="-36" y="464" width="583" height="48" fill="#D80027"/>
<rect x="-36" y="371" width="583" height="48" fill="#D80027"/>
<rect x="-36" y="278" width="583" height="48" fill="#D80027"/>
<rect x="230" y="186" width="317" height="48" fill="#D80027"/>
<rect x="230" y="93" width="317" height="48" fill="#D80027"/>
<rect x="230" width="317" height="48" fill="#D80027"/>
</g>
<path d="M108.393 36.5424H129.717L109.882 50.9526L117.459 74.2694L97.6246 59.8592L77.7904 74.2694L84.3351 54.1262C66.871 68.6735 51.5641 85.7171 38.95 104.708H45.7827L33.1567 113.88C31.1896 117.162 29.303 120.495 27.495 123.878L33.5242 142.435L22.2757 134.262C19.4796 140.186 16.922 146.244 14.6232 152.427L21.2657 172.873H45.7827L25.9475 187.283L33.5242 210.6L13.6899 196.19L1.80893 204.822C0.619734 214.381 0 224.118 0 234H234C234 104.766 234 89.5306 234 0C187.774 0 144.682 13.4093 108.393 36.5424ZM117.459 210.6L97.6246 196.19L77.7904 210.6L85.367 187.283L65.5319 172.873H90.0489L97.6246 149.556L105.2 172.873H129.717L109.882 187.283L117.459 210.6ZM109.882 119.118L117.459 142.435L97.6246 128.025L77.7904 142.435L85.367 119.118L65.5319 104.708H90.0489L97.6246 81.3909L105.2 104.708H129.717L109.882 119.118ZM201.394 210.6L181.559 196.19L161.725 210.6L169.302 187.283L149.467 172.873H173.984L181.559 149.556L189.135 172.873H213.652L193.817 187.283L201.394 210.6ZM193.817 119.118L201.394 142.435L181.559 128.025L161.725 142.435L169.302 119.118L149.467 104.708H173.984L181.559 81.3909L189.135 104.708H213.652L193.817 119.118ZM193.817 50.9526L201.394 74.2694L181.559 59.8592L161.725 74.2694L169.302 50.9526L149.467 36.5424H173.984L181.559 13.2256L189.135 36.5424H213.652L193.817 50.9526Z" fill="#0052B4"/>
<mask id="mask2" mask-type="alpha" maskUnits="userSpaceOnUse" x="76" y="75" width="551" height="551">
<rect x="76" y="443" width="520.431" height="258.316" transform="rotate(-45 76 443)" fill="#C4C4C4"/>
</mask>
<g mask="url(#mask2)">
<path d="M516.657 260.657C516.657 119.272 402.042 4.65672 260.657 4.65673C119.272 4.65673 4.65672 119.272 4.65673 260.657C4.65673 402.042 119.272 516.657 260.657 516.657C402.042 516.657 516.657 402.042 516.657 260.657Z" fill="#F0F0F0"/>
<mask id="mask3" mask-type="alpha" maskUnits="userSpaceOnUse" x="4" y="3" width="513" height="513">
<path d="M260.657 515.657C402.042 515.657 516.657 401.042 516.657 259.657C516.657 118.272 402.042 3.65674 260.657 3.65674C119.272 3.65674 4.65674 118.272 4.65674 259.657C4.65674 401.042 119.272 515.657 260.657 515.657Z" fill="#F0F0F0"/>
</mask>
<g mask="url(#mask3)">
<path d="M56.7577 102.98C36.6487 129.143 21.4857 159.298 12.6567 192.057H145.835L56.7577 102.98Z" fill="#0052B4"/>
<path d="M507.019 192.057C498.19 159.299 483.026 129.144 462.918 102.981L373.843 192.057H507.019Z" fill="#0052B4"/>
<path d="M12.6567 325.622C21.4867 358.38 36.6497 388.535 56.7577 414.697L145.832 325.622H12.6567Z" fill="#0052B4"/>
<path d="M415.696 55.7587C389.533 35.6497 359.379 20.4867 326.62 11.6567V144.834L415.696 55.7587Z" fill="#0052B4"/>
<path d="M103.98 461.917C130.143 482.026 160.298 497.189 193.056 506.019V372.843L103.98 461.917Z" fill="#0052B4"/>
<path d="M193.055 11.6567C160.297 20.4867 130.142 35.6497 103.98 55.7577L193.055 144.833V11.6567Z" fill="#0052B4"/>
<path d="M328 509C360.73 500.115 390.86 484.859 417 464.626L328 375V509Z" fill="#0052B4"/>
<path d="M375 327L464.626 417C484.859 390.567 500.116 360.098 509 327H375Z" fill="#0052B4"/>
<path d="M327.681 327.274L442.428 442.278C447.705 436.991 452.74 431.463 457.543 425.733L359.304 327.273H327.681V327.274Z" fill="#D80027"/>
<path d="M193.518 192.811V192.809L78.772 77.8038C73.4945 83.0911 68.4601 88.6191 63.6567 94.3493L161.897 192.81H193.518V192.811Z" fill="#D80027"/>
<path d="M629.504 210.57H308.746H308.745V-110.19C292.839 -112.261 276.624 -113.343 260.157 -113.343C243.687 -113.343 227.474 -112.261 211.57 -110.19V210.567V210.569H-109.19C-111.261 226.474 -112.343 242.69 -112.343 259.157C-112.343 275.627 -111.261 291.839 -109.19 307.743H211.567H211.569V628.504C227.474 630.574 243.687 631.657 260.157 631.657C276.624 631.657 292.839 630.576 308.743 628.504V307.746V307.745H629.504C631.574 291.839 632.657 275.627 632.657 259.157C632.657 242.69 631.574 226.474 629.504 210.57Z" fill="#D80027"/>
</g>
</g>
</g>
</svg>
