<?xml version="1.0" encoding="UTF-8"?>
<svg width="35px" height="36px" viewBox="0 0 35 36" version="1.1" xmlns="http://www.w3.org/2000/svg" xmlns:xlink="http://www.w3.org/1999/xlink">
    <!-- Generator: Sketch 61 (89581) - https://sketch.com -->
    <title>manufacturing</title>
    <desc>Created with Sketch.</desc>
    <defs>
        <linearGradient x1="37.0249367%" y1="8.38967734%" x2="67.588401%" y2="100%" id="linearGradient-1">
            <stop stop-color="#E3E7F2" offset="0.0580658784%"></stop>
            <stop stop-color="#D0D8EE" offset="100%"></stop>
        </linearGradient>
        <linearGradient x1="34.8380476%" y1="8.38967734%" x2="70.5528476%" y2="100%" id="linearGradient-2">
            <stop stop-color="#E3E7F2" offset="0.0580658784%"></stop>
            <stop stop-color="#D0D8EE" offset="100%"></stop>
        </linearGradient>
    </defs>
    <g id="Home-Revamp" stroke="none" stroke-width="1" fill="none" fill-rule="evenodd">
        <g id="LandingPage-Elrond-Revamp" transform="translate(-1143.000000, -1296.000000)" fill-rule="nonzero">
            <g id="The-Dawn-of-New-Blockchain-Era" transform="translate(80.000000, 1083.000000)">
                <g id="virtual-machine" transform="translate(880.000000, 83.000000)">
                    <g id="manufacturing" transform="translate(183.000000, 130.000000)">
                        <path d="M21.5212713,29.1452329 L23.0303289,30.7801137 C22.369962,31.0432736 21.6890357,31.2516086 20.9944033,31.4029255 L20.9944033,34.7324465 C20.9933068,35.062767 20.7257609,35.3303129 20.3954404,35.3311353 L15.6048338,35.3311353 C15.2745132,35.3303129 15.0069673,35.062767 15.0058708,34.7324465 L15.0058708,31.4029255 C13.445826,31.0605435 11.9578762,30.4462297 10.6105523,29.5884928 L9.95786095,30.2411842 L8.26294671,31.9358243 C8.15137786,32.0506826 7.99814202,32.1156502 7.83777898,32.1156502 C7.67769004,32.1156502 7.52445421,32.0506826 7.41261125,31.9358243 L6.93974583,31.4626848 L4.02936184,28.5525749 C3.91450349,28.4407319 3.84953591,28.2874961 3.84953591,28.1274072 C3.84953591,27.9670441 3.91450349,27.8138083 4.02936184,27.7022394 L6.37669333,25.3546338 C5.51868237,24.00731 4.90464261,22.5193601 4.56226063,20.9593153 L1.23273963,20.9593153 C0.902419152,20.9582188 0.634873255,20.6906729 0.634050863,20.3603524 L0.634050863,15.5697458 C0.634873255,15.2394252 0.902419152,14.9718793 1.23273963,14.9707828 L4.56226063,14.9707828 C4.90464261,13.410738 5.51868237,11.9227882 6.37669333,10.5754643 L4.02936184,8.22785872 C3.91450349,8.11628987 3.84953591,7.96305404 3.84953591,7.80269099 C3.84953591,7.64260205 3.91450349,7.48936622 4.02936184,7.37752326 L7.41261125,3.99427385 C7.52445421,3.8794155 7.67769004,3.81444792 7.83777898,3.81444792 C7.99814202,3.81444792 8.15137786,3.8794155 8.26294671,3.99427385 L10.6105523,6.34160534 C11.9578762,5.48386849 13.445826,4.86955462 15.0058708,4.52717265 L15.0058708,1.19765165 C15.0069673,0.867331166 15.2745132,0.599785269 15.6048338,0.598962877 L20.3954404,0.598962877 C20.7257609,0.599785269 20.9933068,0.867331166 20.9944033,1.19765165 L20.9944033,4.52717265 C21.6890357,4.67848959 22.369962,4.88682451 23.0303289,5.14998441 L21.5930921,6.85065525 L21.8206157,11.4137382 L17.8863752,17.1805036 L21.5451202,24.6002421 L21.5212713,29.1452329 Z" id="Path" fill="#CAD9FC"></path>
                        <path d="M19.7246568,29.1452329 L21.2337143,30.7801137 C20.5733475,31.0432736 19.8924212,31.2516086 19.1977887,31.4029255 L19.1977887,34.7324465 C19.1969664,35.062767 18.9294205,35.3303129 18.5990999,35.3311353 L15.6048338,35.3311353 C15.2745132,35.3303129 15.0069673,35.062767 15.0058708,34.7324465 L15.0058708,31.4029255 C13.445826,31.0605435 11.9578762,30.4462297 10.6105523,29.5884928 L9.95786095,30.2411842 C9.56257281,30.0435402 8.19112595,32.5706976 7.81996088,32.3371431 L6.93974583,31.4626848 L4.02936184,28.5525749 C3.91450349,28.4407319 3.84953591,28.2874961 3.84953591,28.1274072 C3.84953591,27.9670441 3.91450349,27.8138083 4.02936184,27.7022394 L6.37669333,25.3546338 C5.51868237,24.00731 4.90464261,22.5193601 4.56226063,20.9593153 L1.23273963,20.9593153 C0.902419152,20.9582188 0.634873255,20.6906729 0.634050863,20.3603524 L0.634050863,15.5697458 C0.634873255,15.2394252 0.902419152,14.9718793 1.23273963,14.9707828 L4.56226063,14.9707828 C4.90464261,13.410738 5.51868237,11.9227882 6.37669333,10.5754643 L4.02936184,8.22785872 C3.91450349,8.11628987 3.84953591,7.96305404 3.84953591,7.80269099 C3.84953591,7.64260205 3.91450349,7.48936622 4.02936184,7.37752326 L6.93974583,4.46741339 L7.81996088,3.59295501 C8.19112595,3.3594006 9.56257281,5.88655795 9.95786095,5.68891391 L10.6105523,6.34160534 C11.9578762,5.48386849 13.445826,4.86955462 15.0058708,4.52717265 L15.0058708,1.19765165 C15.0069673,0.867331166 15.2745132,0.599785269 15.6048338,0.598962877 L18.5990999,0.598962877 C18.9294205,0.599785269 19.1969664,0.867331166 19.1977887,1.19765165 L19.1977887,4.52717265 C19.8924212,4.67848959 20.5733475,4.88682451 21.2337143,5.14998441 L19.7967516,6.85065525 L20.0242753,11.4137382 L16.0897607,17.1805036 L19.7487798,24.6002421 L19.7246568,29.1452329 Z" id="Path" fill="url(#linearGradient-1)"></path>
                        <path d="M21.8199595,11.8271185 L18.3990937,17.8153769 L21.8199595,24.3666877 L21.8199595,27.4925339 C20.6530143,27.9267477 19.4155732,28.1479665 18.1678223,28.1452851 C17.8668909,28.1463218 17.5662381,28.1323414 17.2669785,28.1032842 C14.7971117,27.8952234 12.4866271,26.8170902 10.7598938,25.0673509 C8.87377813,23.1690361 7.81856765,20.6196746 7.81995952,17.9650491 C7.81828902,12.6837589 11.9246098,8.27966831 17.2731086,7.82681398 L17.2912202,7.82681398 C17.5823992,7.7974826 17.8749714,7.78350222 18.1678223,7.7847811 C19.4155732,7.78213161 20.6530143,8.00335042 21.8199595,8.43756425 L21.8199595,11.8271185 Z" id="Path" fill="#1B46C2"></path>
                        <path d="M20.8199595,11.8271185 L17.1670108,17.8153769 L20.8199595,24.3666877 L20.8199595,27.4925339 C19.8853736,27.8214838 18.9049659,28.0270774 17.9078956,28.1032842 C15.2704649,27.8952234 12.8032293,26.8170902 10.9593486,25.0673509 C8.94527268,23.1690361 7.81847322,20.6196746 7.81995952,17.9650491 C7.81817569,12.6837589 12.2030828,8.27966831 17.9144416,7.82681398 L17.933782,7.82681398 C18.9216283,7.90877734 19.8925146,8.11409687 20.8199595,8.43756425 L20.8199595,11.8271185 Z" id="Path" fill="url(#linearGradient-2)"></path>
                        <path d="M32.3722311,4.19191788 C32.3722311,4.82706525 32.1200362,5.4364449 31.6707456,5.88573562 C31.2214549,6.33502634 30.6120752,6.58749535 29.9769278,6.58722125 C29.6682632,6.58968835 29.3626139,6.52828438 29.0786206,6.40766942 C28.1740084,6.04390567 27.5816245,5.16670601 27.5816245,4.19191788 C27.5816245,3.21685565 28.1740084,2.3399301 29.0786206,1.97616635 C29.3626139,1.85527728 29.6682632,1.79414742 29.9769278,1.79661452 C30.6120752,1.79634042 31.2214549,2.04853532 31.6707456,2.49782604 C32.1200362,2.94711676 32.3722311,3.55649641 32.3722311,4.19191788 L32.3722311,4.19191788 Z" id="Path" fill="#CAD9FC"></path>
                        <path d="M29.3779651,11.3778278 C29.3782391,12.0132494 29.12577,12.622629 28.6764793,13.0719197 C28.2274627,13.5209363 27.6180831,13.7734053 26.9826616,13.7731312 C26.6739969,13.7755983 26.3683477,13.7144685 26.0843543,13.5935794 C25.1800163,13.2298157 24.5873583,12.3528901 24.5873583,11.3778278 C24.5873583,10.4030398 25.1800163,9.52584011 26.0843543,9.16207636 C26.3683477,9.0411873 26.6739969,8.98005743 26.9826616,8.98252454 C27.6180831,8.98225043 28.2274627,9.23471944 28.6764793,9.68401016 C29.12577,10.1330267 29.3782391,10.7424064 29.3779651,11.3778278 L29.3779651,11.3778278 Z" id="Path" fill="#CAD9FC"></path>
                        <path d="M33.5698831,17.9650491 C33.570157,18.6004706 33.3176879,19.2098502 32.8683972,19.6588668 C32.4191065,20.1081575 31.8097268,20.3606265 31.1745795,20.3603524 C30.8659149,20.3628195 30.5602656,20.3016897 30.2762722,20.1808006 C29.3716601,19.8170369 28.7792761,18.9398372 28.7792761,17.9650491 C28.7792761,16.990261 29.3716601,16.1130613 30.2762722,15.7492975 C30.5602656,15.6284085 30.8659149,15.5672786 31.1745795,15.5697458 C31.8097268,15.5694716 32.4191065,15.8219407 32.8683972,16.2712313 C33.3176879,16.7202479 33.570157,17.3296275 33.5698831,17.9650491 L33.5698831,17.9650491 Z" id="Path" fill="#CAD9FC"></path>
                        <path d="M29.3779651,24.5522703 C29.3782391,25.1876918 29.12577,25.7970714 28.6764793,26.246088 C28.2274627,26.6953787 27.6180831,26.9478477 26.9826616,26.9475736 C26.6739969,26.9500407 26.3683477,26.8889109 26.0843543,26.7680218 C25.1800163,26.404258 24.5873583,25.5270584 24.5873583,24.5522703 C24.5873583,23.577208 25.1800163,22.7002825 26.0843543,22.3365188 C26.3683477,22.2156297 26.6739969,22.1544999 26.9826616,22.156967 C27.6180831,22.1566929 28.2274627,22.4091619 28.6764793,22.8581784 C29.12577,23.3074691 29.3782391,23.9168488 29.3779651,24.5522703 L29.3779651,24.5522703 Z" id="Path" fill="#CAD9FC"></path>
                        <path d="M32.3722311,31.7381803 C32.3722311,32.3736017 32.1200362,32.9829814 31.6707456,33.4322721 C31.2214549,33.8815628 30.6120752,34.1337577 29.9769278,34.1334836 C29.6682632,34.1359507 29.3626139,34.0748209 29.0786206,33.9539318 C28.1740084,33.5901681 27.5816245,32.7132425 27.5816245,31.7381803 C27.5816245,30.7633921 28.1740084,29.8861925 29.0786206,29.5224287 C29.3626139,29.4018138 29.6682632,29.3404098 29.9769278,29.3428769 C30.6120752,29.3426028 31.2214549,29.5950718 31.6707456,30.0443625 C32.1200362,30.4936532 32.3722311,31.1030329 32.3722311,31.7381803 L32.3722311,31.7381803 Z" id="Path" fill="#CAD9FC"></path>
                        <path d="M30.5756166,4.19191788 C30.5756166,2.96822436 29.9053813,1.97616635 29.0786206,1.97616635 C28.2518599,1.97616635 27.5816245,2.96822436 27.5816245,4.19191788 C27.5816245,5.41561141 28.2518599,6.40766942 29.0786206,6.40766942 C29.9053813,6.40766942 30.5756166,5.41561141 30.5756166,4.19191788 L30.5756166,4.19191788 Z" id="Path" fill="#E8EDFC"></path>
                        <path d="M27.5816245,11.3778278 C27.5816245,10.1541343 26.911115,9.16207636 26.0843543,9.16207636 C25.2575937,9.16207636 24.5873583,10.1541343 24.5873583,11.3778278 C24.5873583,12.6015214 25.2575937,13.5935794 26.0843543,13.5935794 C26.911115,13.5935794 27.5816245,12.6015214 27.5816245,11.3778278 Z" id="Path" fill="#E8EDFC"></path>
                        <path d="M31.7732683,17.9650491 C31.7732683,16.7413555 31.1030329,15.7492975 30.2762722,15.7492975 C29.4495115,15.7492975 28.7792761,16.7413555 28.7792761,17.9650491 C28.7792761,19.1887426 29.4495115,20.1808006 30.2762722,20.1808006 C31.1030329,20.1808006 31.7732683,19.1887426 31.7732683,17.9650491 L31.7732683,17.9650491 Z" id="Path" fill="#E8EDFC"></path>
                        <path d="M27.5816245,24.5522703 C27.5816245,23.3285768 26.911115,22.3365188 26.0843543,22.3365188 C25.2575937,22.3365188 24.5873583,23.3285768 24.5873583,24.5522703 C24.5873583,25.7759639 25.2575937,26.7680218 26.0843543,26.7680218 C26.911115,26.7680218 27.5816245,25.7759639 27.5816245,24.5522703 L27.5816245,24.5522703 Z" id="Path" fill="#E8EDFC"></path>
                        <path d="M30.5756166,31.7381803 C30.5756166,30.5144867 29.9053813,29.5224287 29.0786206,29.5224287 C28.2518599,29.5224287 27.5816245,30.5144867 27.5816245,31.7381803 C27.5816245,32.9618738 28.2518599,33.9539318 29.0786206,33.9539318 C29.9053813,33.9539318 30.5756166,32.9618738 30.5756166,31.7381803 L30.5756166,31.7381803 Z" id="Path" fill="#E8EDFC"></path>
                        <path d="M20.3954406,17.9650491 C20.3957145,18.6004706 20.1432455,19.2098502 19.6939548,19.6588668 C19.2449382,20.1081575 18.6355586,20.3606265 18.0001371,20.3603524 C17.6914724,20.3628195 17.3858232,20.3016897 17.1018298,20.1808006 C16.1974918,19.8170369 15.6048338,18.9398372 15.6048338,17.9650491 C15.6048338,16.990261 16.1974918,16.1130613 17.1018298,15.7492975 C17.3858232,15.6284085 17.6914724,15.5672786 18.0001371,15.5697458 C18.6355586,15.5694716 19.2449382,15.8219407 19.6939548,16.2712313 C20.1432455,16.7202479 20.3957145,17.3296275 20.3954406,17.9650491 L20.3954406,17.9650491 Z" id="Path" fill="#E8EDFC"></path>
                        <path d="M18.5990999,17.9650491 C18.5990999,16.7413555 17.9285905,15.7492975 17.1018298,15.7492975 C16.2750691,15.7492975 15.6048338,16.7413555 15.6048338,17.9650491 C15.6048338,19.1887426 16.2750691,20.1808006 17.1018298,20.1808006 C17.9285905,20.1808006 18.5990999,19.1887426 18.5990999,17.9650491 L18.5990999,17.9650491 Z" id="Path" fill="#FFFFFF"></path>
                        <path d="M6.35887516,14.9707828 C6.70098302,13.410738 7.31529697,11.9227882 8.17330785,10.5754643 L5.82570225,8.22785872 C5.71084391,8.11628987 5.64615043,7.96305404 5.64615043,7.80269099 C5.64615043,7.64260205 5.71084391,7.48936622 5.82570225,7.37752326 L8.73608624,4.46741339 L8.74842184,4.45507778 C8.35669739,3.94191598 7.98717703,3.48796516 7.81996088,3.59295501 L7.42275392,3.98742068 C7.41973853,3.99043607 7.41590075,3.99125846 7.41288536,3.99427385 L6.93974583,4.46741339 L4.02936184,7.37752326 C3.91450349,7.48936622 3.84953591,7.64260205 3.84953591,7.80269099 C3.84953591,7.96305404 3.91450349,8.11628987 4.02936184,8.22785872 L6.37669333,10.5754643 C5.51868237,11.9227882 4.90464261,13.410738 4.56226063,14.9707828 L6.35887516,14.9707828 Z" id="Path" fill="#FFFFFF"></path>
                        <path d="M8.73608624,31.4626848 L5.82570225,28.5525749 C5.71084391,28.4407319 5.64615043,28.2874961 5.64615043,28.1274072 C5.64615043,27.9670441 5.71084391,27.8138083 5.82570225,27.7022394 L8.17330785,25.3546338 C7.31529697,24.00731 6.70098302,22.5193601 6.35887516,20.9593153 L4.56226063,20.9593153 C4.90464261,22.5193601 5.51868237,24.00731 6.37669333,25.3546338 L4.02936184,27.7022394 C3.91450349,27.8138083 3.84953591,27.9670441 3.84953591,28.1274072 C3.84953591,28.2874961 3.91450349,28.4407319 4.02936184,28.5525749 L6.93974583,31.4626848 L7.41261125,31.9358243 C7.41562664,31.9388397 7.41973853,31.9396621 7.42275392,31.9426775 L7.81996088,32.3371431 C7.98717703,32.442133 8.35669739,31.9879081 8.74814774,31.4747463 L8.73608624,31.4626848 Z" id="Path" fill="#FFFFFF"></path>
                        <path d="M2.43039128,20.3603524 L2.43039128,15.5697458 C2.43148785,15.2394252 2.69903374,14.9718793 3.02935422,14.9707828 L1.23273963,14.9707828 C0.902419152,14.9718793 0.634873255,15.2394252 0.634050863,15.5697458 L0.634050863,20.3603524 C0.634873255,20.6906729 0.902419152,20.9582188 1.23273963,20.9593153 L3.02935422,20.9593153 C2.69903374,20.9582188 2.43148785,20.6906729 2.43039128,20.3603524 Z" id="Path" fill="#FFFFFF"></path>
                        <path d="M5.95344449,10.9989873 L3.71960067,8.76514351 C3.64120099,8.69058154 3.56718723,8.61135947 3.49810776,8.5280255 C3.19053966,8.12725487 3.16888378,7.57598969 3.44465346,7.15246674 C3.48851344,7.08558027 3.53895242,7.02307979 3.59514801,6.96578771 L3.68752808,6.87285935 L6.98963652,3.57075084 L7.83640837,4.4177968 L6.93947172,5.31473345 L4.44411279,7.80269099 L6.80021627,10.1522155 L5.95344449,10.9989873 Z" id="Path" fill="#1B46C2"></path>
                        <g id="Group" fill="#1B46C2">
                            <path d="M4.25962675,8.45812363 C4.02799123,8.69414515 4.02881355,9.0721634 4.26154557,9.30708841 L5.95344449,10.9989873 L6.80021627,10.1519413 L5.10447964,8.45620474 C4.99236258,8.34436178 4.84022324,8.2815872 4.68150498,8.28186041 C4.52306076,8.28240959 4.37119553,8.34573239 4.25962675,8.45812363 Z" id="Path"></path>
                            <path d="M7.83613419,4.4177968 L6.98936241,3.57075084 L5.6705476,4.88956572 C5.4361708,5.12284603 5.4350743,5.50196077 5.6683546,5.73633757 C5.90163483,5.97098848 6.28074958,5.97181081 6.51540049,5.73853057 L7.83613419,4.4177968 Z" id="Path"></path>
                            <path d="M3.97810047,6.58201286 C3.86762812,6.69604881 3.80403114,6.84736575 3.79991932,7.00608408 L3.81170664,7.12066826 C3.81938214,7.16233524 3.83007302,7.20345401 3.84323102,7.24347621 C3.85172891,7.28185369 3.86899872,7.31776407 3.89367,7.34819195 C3.9194377,7.37944216 3.94767259,7.40822525 3.97864868,7.43426713 C4.09679653,7.5343227 4.24290515,7.59600086 4.39696331,7.61080357 C4.72591318,7.60257985 4.99044368,7.33804928 4.99894157,7.00937351 C4.99702268,6.93042554 4.98002697,6.85257414 4.94905088,6.78020517 C4.9199936,6.70728791 4.87723012,6.64067555 4.82267925,6.58447996 C4.71193279,6.4701699 4.56006764,6.40547642 4.4010752,6.40519882 C4.24208276,6.40465403 4.08966932,6.46852511 3.97837457,6.58201286 L3.97810047,6.58201286 Z" id="Path"></path>
                            <path d="M10.6105523,6.94056822 C10.4515599,6.94056822 10.2994205,6.87751946 10.1870293,6.76512829 L7.83969787,4.4177968 C7.60723996,4.65381831 7.227577,4.65710781 6.99128131,4.42492408 C6.75498561,4.19246617 6.75169618,3.81280314 6.98415409,3.57650751 C7.20729172,3.3451461 7.5154081,3.21493676 7.83695659,3.21575915 L7.83805309,3.21575915 C8.15960164,3.21493676 8.46799213,3.34487193 8.69195215,3.57568512 L10.7007394,5.58447235 C11.8572723,4.90135311 13.1053629,4.38599831 14.4071821,4.05403304 L14.4071821,1.19765165 C14.4080044,0.536462401 14.9436445,0.000822378192 15.6048338,0 L18.0001371,0 C18.3307317,0 18.5990999,0.268094112 18.5990999,0.598962877 C18.5990999,0.929557534 18.3307317,1.19765165 18.0001371,1.19765165 L15.6048338,1.19765165 L15.6048338,4.52717265 C15.6048338,4.80869893 15.4088345,5.05212184 15.1341613,5.11215514 C13.6420995,5.43918612 12.2196654,6.02636168 10.9315526,6.84709158 C10.8356088,6.90822144 10.7243141,6.94056822 10.6105523,6.94056822 Z" id="Path"></path>
                            <path d="M18.0001371,35.9300982 L15.6048338,35.9300982 C14.9436445,35.9292758 14.4080044,35.3936358 14.4071821,34.7324465 L14.4071821,31.8760651 C13.1053629,31.5440998 11.8572723,31.0284709 10.7007394,30.3453517 L8.68674376,32.3590731 C8.46333195,32.587145 8.15740864,32.7154355 7.83805309,32.7140649 L7.83695659,32.7140649 C7.5154081,32.7148873 7.20756583,32.5846779 6.98415409,32.3533165 L3.60583883,28.9758237 C3.37776691,28.7510413 3.25002475,28.4437473 3.25084714,28.1232953 C3.25194364,27.8031174 3.3816047,27.4966458 3.61104722,27.2729599 L5.61928623,25.2647209 C4.93616699,24.1079138 4.42081219,22.8598232 4.08829864,21.5580041 L1.23273963,21.5580041 C0.571550387,21.5571817 0.0359103787,21.0215417 0.0350879865,20.3603524 L0.0350879865,15.5697458 C0.0359103787,14.9085565 0.571550387,14.3729165 1.23273963,14.3720941 L4.08829864,14.3720941 C4.46083439,12.9137496 5.06281266,11.5239365 5.87148113,10.254464 C5.98332409,10.0680591 6.18782122,9.95703855 6.40520232,9.96443994 C6.62258334,9.97184126 6.81885676,10.0965681 6.91781583,10.2901002 C7.01704908,10.4839066 7.00306869,10.7160904 6.88190546,10.8964646 C6.06144966,12.1845774 5.474,13.6072856 5.14669491,15.0990733 C5.08666154,15.3737465 4.84351274,15.5694716 4.56226063,15.5697458 L1.23273963,15.5697458 L1.23273963,20.3603524 L4.56226063,20.3603524 C4.84351274,20.3603524 5.08693565,20.5563517 5.14696902,20.8310249 C5.47427411,22.3228125 6.06172377,23.7455207 6.88217956,25.0336336 C7.03267418,25.2702034 6.9986827,25.5796904 6.80021627,25.7778827 L4.45288478,28.1254883 L7.83640837,31.5125755 L10.1873035,29.165244 C10.3857699,28.9673258 10.6947087,28.9333343 10.9315526,29.0830066 C12.2196654,29.9037365 13.6420995,30.490912 15.1341613,30.8176689 C15.4088345,30.8779763 15.6048338,31.1213992 15.6048338,31.4029255 L15.6048338,34.7324465 L18.0001371,34.7324465 C18.3307317,34.7324465 18.5990999,35.0005406 18.5990999,35.3311353 C18.5990999,35.662004 18.3307317,35.9300982 18.0001371,35.9300982 L18.0001371,35.9300982 Z" id="Path"></path>
                            <path d="M18.0001371,28.7441881 C12.0469667,28.7441881 7.220998,23.9182194 7.220998,17.9650491 C7.220998,12.0118788 12.0469667,7.18591002 18.0001371,7.18591002 C18.3307317,7.18591002 18.5990999,7.45400413 18.5990999,7.78487289 C18.5990999,8.11546748 18.3307317,8.38356166 18.0001371,8.38356166 C12.7084301,8.38356166 8.41864965,12.6733421 8.41864965,17.9650491 C8.41864965,23.256756 12.7084301,27.5465365 18.0001371,27.5465365 C18.3307317,27.5465365 18.5990999,27.8146307 18.5990999,28.1452253 C18.5990999,28.476094 18.3307317,28.7441881 18.0001371,28.7441881 L18.0001371,28.7441881 Z" id="Path"></path>
                            <path d="M20.3954404,35.9300982 L18.0001371,35.9300982 C17.6695424,35.9300982 17.4011742,35.662004 17.4011742,35.3311353 C17.4011742,35.0005406 17.6695424,34.7324465 18.0001371,34.7324465 L20.3954404,34.7324465 L20.3954404,31.4029255 C20.3954404,31.1222216 20.5903432,30.8790729 20.8644681,30.8184912 C21.5270279,30.6737533 22.1764298,30.4752869 22.806643,30.2250109 C23.0059317,30.1394839 23.2359225,30.1688153 23.4077989,30.3012175 C23.579401,30.4336199 23.6662987,30.648808 23.6345001,30.8631736 C23.6027017,31.0778134 23.4574155,31.2584617 23.254563,31.3354908 C22.7134405,31.5520494 22.1583376,31.7324237 21.5930921,31.8755168 L21.5930921,34.7324465 C21.5922697,35.3936358 21.0566297,35.9292758 20.3954404,35.9300982 L20.3954404,35.9300982 Z" id="Path"></path>
                            <path d="M23.0303289,5.74922167 C22.9535739,5.74922167 22.8773672,5.73414458 22.8063688,5.70536141 C22.1761557,5.45481129 21.5267538,5.25634487 20.864194,5.11160692 C20.5903432,5.05102527 20.3954404,4.80787654 20.3954404,4.52717265 L20.3954404,1.19765165 L18.0001371,1.19765165 C17.6695424,1.19765165 17.4011742,0.929557534 17.4011742,0.598962877 C17.4011742,0.268094112 17.6695424,0 18.0001371,0 L20.3954404,0 C21.0566297,0.000822378192 21.5922697,0.536462401 21.5930921,1.19765165 L21.5930921,4.05458133 C22.1583376,4.19767449 22.7134405,4.37804871 23.254563,4.59488144 C23.5207383,4.70179019 23.6734259,4.98276819 23.618875,5.26456858 C23.56405,5.54609486 23.3173376,5.74949557 23.0303289,5.74922167 Z" id="Path"></path>
                            <path d="M17.4011742,28.1452253 C17.4011742,27.8146307 17.6255021,27.5465365 17.901845,27.5465365 C18.8672115,27.5492778 19.8247874,27.341217 20.7278279,26.9327708 C20.9853812,26.8192832 21.2711187,26.9755344 21.3685032,27.2825543 C21.4658876,27.5895742 21.3382567,27.9330526 21.0827657,28.0525711 C20.0663009,28.5125526 18.9884266,28.7469294 17.901845,28.7441881 C17.6255021,28.7441881 17.4011742,28.476094 17.4011742,28.1452253 Z" id="Path"></path>
                            <path d="M20.9009037,9.03652712 C20.8404846,9.03652712 20.7802944,9.02309502 20.7237659,8.99732732 C19.8218281,8.58860708 18.8654214,8.38082038 17.9012336,8.38356166 C17.6252282,8.38356166 17.4011742,8.11546748 17.4011742,7.78487289 C17.4011742,7.45400413 17.6252282,7.18591002 17.9012336,7.18591002 C18.9864885,7.18316873 20.0630467,7.41754553 21.0782703,7.87752707 C21.3039264,7.98004982 21.4364365,8.26102782 21.392953,8.54556949 C21.3494696,8.82983699 21.1423511,9.03652712 20.9009037,9.03652712 Z" id="Path"></path>
                            <path d="M18.0001371,20.9593153 C16.3466157,20.9593153 15.0058708,19.6185704 15.0058708,17.9650491 C15.0058708,16.3115277 16.3466157,14.9707828 18.0001371,14.9707828 C19.6536584,14.9707828 20.9944033,16.3115277 20.9944033,17.9650491 C20.9924844,19.617748 19.652836,20.9573964 18.0001371,20.9593153 L18.0001371,20.9593153 Z M18.0001371,16.1684346 C17.0080791,16.1684346 16.2035225,16.9729911 16.2035225,17.9650491 C16.2035225,18.9571071 17.0080791,19.7616636 18.0001371,19.7616636 C18.9921951,19.7616636 19.7967516,18.9571071 19.7967516,17.9650491 C19.7956552,16.9732652 18.9919209,16.169531 18.0001371,16.1684346 L18.0001371,16.1684346 Z" id="Shape"></path>
                            <path d="M29.9769278,7.18591002 C28.3231323,7.18591002 26.9826616,5.84543925 26.9826616,4.19191788 C26.9826616,2.53812241 28.3231323,1.19765165 29.9769278,1.19765165 C31.6304492,1.19765165 32.9709199,2.53812241 32.9709199,4.19191788 C32.9690011,5.84461685 31.6296268,7.18399112 29.9769278,7.18591002 L29.9769278,7.18591002 Z M29.9769278,2.39530329 C28.9845957,2.39530329 28.1803132,3.19958577 28.1803132,4.19191788 C28.1803132,5.18397589 28.9845957,5.9882583 29.9769278,5.9882583 C30.9689858,5.9882583 31.7732683,5.18397589 31.7732683,4.19191788 C31.7721718,3.20013398 30.9684376,2.39639986 29.9769278,2.39530329 L29.9769278,2.39530329 Z" id="Shape"></path>
                            <path d="M26.9826616,14.3720941 C25.3291402,14.3720941 23.9883954,13.0316234 23.9883954,11.3778278 C23.9883954,9.72430647 25.3291402,8.38356166 26.9826616,8.38356166 C28.636183,8.38356166 29.9769278,9.72430647 29.9769278,11.3778278 C29.9750089,13.030801 28.6353606,14.3701752 26.9826616,14.3720941 Z M26.9826616,9.58148741 C25.9906036,9.58148741 25.1860471,10.3857699 25.1860471,11.3778278 C25.1860471,12.37016 25.9906036,13.1744424 26.9826616,13.1744424 C27.9747196,13.1744424 28.7792761,12.37016 28.7792761,11.3778278 C28.7781797,10.386044 27.9744454,9.58258391 26.9826616,9.58148741 Z" id="Shape"></path>
                            <path d="M31.1745795,20.9593153 C29.520784,20.9593153 28.1803132,19.6185704 28.1803132,17.9650491 C28.1803132,16.3115277 29.520784,14.9707828 31.1745795,14.9707828 C32.8281008,14.9707828 34.1685716,16.3115277 34.1685716,17.9650491 C34.1666527,19.617748 32.8272785,20.9573964 31.1745795,20.9593153 L31.1745795,20.9593153 Z M31.1745795,16.1684346 C30.1822474,16.1684346 29.3779649,16.9729911 29.3779649,17.9650491 C29.3779649,18.9571071 30.1822474,19.7616636 31.1745795,19.7616636 C32.1666375,19.7616636 32.9709199,18.9571071 32.9709199,17.9650491 C32.9698234,16.9732652 32.1663634,16.169531 31.1745795,16.1684346 L31.1745795,16.1684346 Z" id="Shape"></path>
                            <path d="M26.9826616,27.5465365 C25.3291402,27.5465365 23.9883954,26.2057917 23.9883954,24.5522703 C23.9883954,22.8984748 25.3291402,21.5580041 26.9826616,21.5580041 C28.636183,21.5580041 29.9769278,22.8984748 29.9769278,24.5522703 C29.9750089,26.2049693 28.6353606,27.5443435 26.9826616,27.5465365 L26.9826616,27.5465365 Z M26.9826616,22.7556557 C25.9906036,22.7556557 25.1860471,23.5599381 25.1860471,24.5522703 C25.1860471,25.5443283 25.9906036,26.3486107 26.9826616,26.3486107 C27.9747196,26.3486107 28.7792761,25.5443283 28.7792761,24.5522703 C28.7781797,23.5604864 27.9744454,22.7567522 26.9826616,22.7556557 L26.9826616,22.7556557 Z" id="Shape"></path>
                            <path d="M29.9769278,34.7324465 C28.3231323,34.7324465 26.9826616,33.3919757 26.9826616,31.7381803 C26.9826616,30.0846589 28.3231323,28.7441881 29.9769278,28.7441881 C31.6304492,28.7441881 32.9709199,30.0846589 32.9709199,31.7381803 C32.9690011,33.3911533 31.6296268,34.7305276 29.9769278,34.7324465 L29.9769278,34.7324465 Z M29.9769278,29.9418399 C28.9845957,29.9418399 28.1803132,30.7461223 28.1803132,31.7381803 C28.1803132,32.7305124 28.9845957,33.5347949 29.9769278,33.5347949 C30.9689858,33.5347949 31.7732683,32.7305124 31.7732683,31.7381803 C31.7721718,30.7463964 30.9684376,29.9429364 29.9769278,29.9418399 L29.9769278,29.9418399 Z" id="Shape"></path>
                            <path d="M28.7792761,18.564012 L20.3954404,18.564012 C20.0648458,18.564012 19.7967516,18.2956437 19.7967516,17.9650491 C19.7967516,17.6344544 20.0648458,17.3660862 20.3954404,17.3660862 L28.7792761,17.3660862 C29.1098708,17.3660862 29.3779649,17.6344544 29.3779649,17.9650491 C29.3779649,18.2956437 29.1098708,18.564012 28.7792761,18.564012 Z" id="Path"></path>
                            <path d="M24.2364784,32.3371431 C23.9190418,32.3363208 23.6147631,32.2102234 23.3897066,31.9862633 L21.3452832,29.9418399 C21.1196784,29.7176057 20.9935809,29.4127788 20.9943724,29.095068 L20.9943724,24.5522703 C20.9943724,24.2214016 21.2624974,23.9533074 21.5930921,23.9533074 C21.9239608,23.9533074 21.9653931,24.319827 21.9653931,24.6506958 L21.9653931,29.095068 L24.2364784,31.1394915 L27.5816245,31.1394915 C27.9122191,31.1394915 28.1803132,31.4075857 28.1803132,31.7381803 C28.1803132,32.069049 27.9122191,32.3371431 27.5816245,32.3371431 L24.2364784,32.3371431 Z" id="Path"></path>
                            <path d="M20.9943767,11.3778278 L20.9943767,6.83503015 C20.9936021,6.51731938 21.1164371,6.2124925 21.3362051,5.9882583 L23.3277352,3.94383487 C23.5469691,3.71987478 23.8433754,3.5937774 24.1525994,3.59295501 L27.4111998,3.59295501 C27.7332413,3.59295501 27.9943319,3.86104912 27.9943319,4.19191788 C27.9943319,4.52251247 27.7332413,4.79060665 27.4111998,4.79060665 L24.1525994,4.79060665 L21.9968262,6.72296143 L21.9968262,11.3778278 C21.9968262,11.7086966 21.8999112,11.9767908 21.5776027,11.9767908 C21.2555612,11.9767908 20.9943767,11.7086966 20.9943767,11.3778278 Z" id="Path"></path>
                        </g>
                    </g>
                </g>
            </g>
        </g>
    </g>
</svg>