<?xml version="1.0" encoding="UTF-8"?>
<svg width="68px" height="18px" viewBox="0 0 68 18" version="1.1" xmlns="http://www.w3.org/2000/svg" xmlns:xlink="http://www.w3.org/1999/xlink">
    <!-- Generator: Sketch 61 (89581) - https://sketch.com -->
    <title>Forbes</title>
    <desc>Created with Sketch.</desc>
    <g id="Forbes" stroke="none" stroke-width="1" fill="none" fill-rule="evenodd">
        <g id="forbes-ar21" transform="translate(1.000000, 1.000000)" fill="#FFFFFF" fill-rule="nonzero">
            <path d="M65.4316073,7.82560256 L64.8275767,7.98603632 C64.2537477,6.06083114 63.290319,5.23608274 61.9312503,5.23608274 C60.9768821,5.23608274 60.3003679,5.85404984 60.3003679,6.8404204 C60.3003679,7.77925502 61.0856076,8.28432428 63.2202515,9.13224644 C65.1851628,9.8429086 66,10.7128161 66,12.2339659 C66,14.5483715 64.1516666,16 61.1158091,16 C59.6558673,16 58.0020317,15.6791325 57.0700126,15.3125116 L56.9534347,12.0967059 L57.5272637,11.9820255 C58.3892153,14.1823449 59.4921751,15.0148178 60.9279556,15.0148178 C62.1704464,15.0148178 62.8227994,14.1668957 62.8227994,13.2957998 C62.8227994,12.4247038 62.3178299,11.920823 60.3764758,11.2339288 C58.5281423,10.637947 57.2626984,9.85895198 57.2626984,7.92602221 C57.2626984,6.02458499 58.9630443,4.41192855 61.8533304,4.41192855 C63.2202515,4.41192855 64.4627423,4.64128941 65.2781835,5.00791028 L65.4316073,7.82560256 Z M52.9281753,8.83395848 C52.9982428,7.32172169 52.6865631,5.13685149 51.4217231,5.13685149 C50.1248696,5.13685149 49.4103015,7.1767371 49.3873483,8.92605935 L52.9281753,8.83395848 Z M51.7321948,4.40360976 C54.9154357,4.40360976 56.4532975,6.69543581 56.4768546,9.70505441 L49.3106364,9.70505441 C49.2864752,12.3712259 50.7240679,14.3873436 53.4107957,14.3873436 C54.5826149,14.3873436 55.2591291,14.066476 55.9730932,13.5625952 L56.3071221,13.929216 C55.5218824,14.9833253 53.8909999,15.991087 51.71649,15.991087 C48.2221734,15.991087 45.7993838,13.6309281 45.7993838,10.2998477 C45.7915546,7.29022914 47.779419,4.40242136 51.7321948,4.40242136 M41.4044808,9.97898021 C41.3344133,7.60218368 40.4501126,5.70906525 38.7485586,5.70906525 C38.3438581,5.70906525 38.0339904,5.77799235 37.5525781,5.93842612 L37.6915051,15.0974115 C37.8624458,15.1663386 38.2653341,15.212092 38.5534567,15.212092 C40.2072923,15.212092 41.4032727,12.9125413 41.4032727,9.9795744 M44.9519521,9.80131467 C44.9519521,13.5673488 42.53583,15.9964348 38.4368788,15.9964348 C36.976937,15.9964348 35.4626325,15.7670739 34.1506782,15.4693802 C34.2672561,13.9571434 34.2672561,4.59137669 34.1506782,2.82660527 C34.0341003,1.90975601 33.7701389,1.47420804 33.0477184,1.38270138 L32.5663061,1.33694804 L32.5663061,0.916849259 L37.6220416,0 C37.5978804,0.77245887 37.5519741,2.82660527 37.5519741,5.23251755 C38.4374828,4.79696958 39.25232,4.54502915 40.3546757,4.54502915 C42.9870408,4.54502915 44.9453078,6.74534853 44.9453078,9.80072047 M32.0794575,7.75548706 C30.5186426,6.74713113 28.8418538,7.1826791 28.5072209,7.75548706 C28.3598375,9.52025848 28.390643,12.2321833 28.5313821,13.6297397 C28.6014497,14.5465889 28.865411,14.9357894 29.5872275,15.0047165 L30.5415957,15.0962231 L30.5415957,15.6922049 L23.4001428,15.6922049 L23.4001428,15.0962231 L23.9516226,15.0047165 C24.6426336,14.9357894 24.8836418,14.5471831 24.9301521,13.6297397 C25.1010927,12.1400824 25.1476031,9.01578341 24.9301521,7.29676533 C24.8836418,6.31158317 24.6426336,5.94436811 23.9516226,5.85286144 L23.4001428,5.78393434 L23.4001428,5.37156014 L28.5017846,4.40895755 L28.4317171,6.9758978 C29.6276975,4.31745089 32.0039537,3.99658335 33.2929548,4.70724552 L32.0794575,7.75548706 Z M15.3375432,10.2154715 C15.3375432,13.018903 16.1064741,15.310729 17.6594366,15.310729 C19.3368294,15.310729 19.8182417,13.0646563 19.8182417,10.2154715 C19.8182417,7.36628663 19.072868,5.14338768 17.4963484,5.14338768 C15.8050629,5.14338768 15.3375432,7.32053329 15.3375432,10.2154715 M23.4291362,10.1697181 C23.4291362,13.3855238 21.2703311,15.9928696 17.4190325,15.9928696 C13.6293449,15.9928696 11.7194004,13.5103056 11.7194004,10.255877 C11.7194004,7.06265087 13.8782055,4.40420396 17.7295041,4.40420396 C21.5191917,4.40420396 23.4291362,6.90221711 23.4291362,10.1637761 M13.5109549,4.63297062 L12.7257152,4.86233149 C12.0576575,2.60853419 10.8773818,1.32565826 8.84300697,1.32565826 L6.18708473,1.32565826 C6.03970128,2.82304007 5.96963374,5.13744569 6.03970128,7.63605303 L7.80951074,7.54454637 C9.00549119,7.54454637 9.50985668,6.69662421 9.80281149,5.46484941 L10.4708693,5.46484941 L10.4708693,10.6747874 L9.79133491,10.6747874 C9.50381637,9.41508523 9.00609522,8.55943848 7.79803416,8.48991718 L6.0282247,8.46614922 C6.0282247,10.3224273 6.05238592,11.9113158 6.17560815,12.8739184 C6.29218604,14.2488952 6.68057767,14.875181 7.70561748,15.0053107 L8.66844215,15.0968173 L8.66844215,15.692799 L0,15.692799 L0,15.0968173 L0.722420515,15.0053107 C1.72390314,14.8686449 2.13585196,14.2488952 2.25242985,12.8739184 C2.44571962,10.6278457 2.49404206,5.83087607 2.25242985,3.16470457 C2.13585196,1.73862666 1.72450717,1.17116649 0.722420515,1.05648605 L0,0.941805623 L0,0.323838526 L13.4940421,0.323838526 L13.5109549,4.63297062 Z" id="Shape"></path>
        </g>
    </g>
</svg>