<?xml version="1.0" encoding="UTF-8"?>
<svg width="43px" height="18px" viewBox="0 0 43 18" version="1.1" xmlns="http://www.w3.org/2000/svg" xmlns:xlink="http://www.w3.org/1999/xlink">
    <!-- Generator: Sketch 61 (89581) - https://sketch.com -->
    <title>Inc</title>
    <desc>Created with Sketch.</desc>
    <g id="Inc" stroke="none" stroke-width="1" fill="none" fill-rule="evenodd">
        <g id="inc-2" transform="translate(1.000000, 2.000000)" fill="#FFFFFF" fill-rule="nonzero">
            <g id="Group-2" transform="translate(25.312500, 3.218852)">
                <path d="M15.3397284,8.75523396 C15.3357731,9.69461733 14.5743334,10.4490467 13.6356127,10.4437387 C12.7120984,10.4384789 11.9562391,9.6713891 11.9613746,8.74480567 C11.9665976,7.81438575 12.7291534,7.06386259 13.6661302,7.06685307 C14.5827737,7.06979172 15.3435159,7.83730009 15.3397284,8.75523396 L15.3397284,8.75523396 Z" id="Path"></path>
                <path d="M8.2348384,4.80291114 L12.2805973,4.38438435 C11.8853337,1.87322364 10.4088409,0.44325712 7.85118884,0.0944847985 C4.01469331,-0.428673684 1.64304152,1.35006516 1.01525134,2.25687319 C0.387461163,3.16368123 0.0735660736,3.96585757 0.00381160931,5.43070132 C-0.065942855,6.89554507 0.840865181,8.22087989 1.15476027,8.56965221 C1.46865536,8.91842453 2.89862188,10.6274089 6.52585402,10.6274089 C10.1530862,10.6274089 11.3389121,9.23231962 11.931825,7.94186203 C12.1643515,7.40708943 12.2805973,6.95368541 12.2805973,6.58164998 L8.30459286,6.58164998 C8.18834704,7.62796694 7.5954341,8.15112542 6.52585402,8.15112542 C4.92150134,8.15112542 4.71223795,6.65140444 4.78199241,5.43070132 C4.85174688,4.20999819 4.74711518,2.60564551 6.45609956,2.53589105 C7.5954341,2.4893997 8.18834704,3.24504981 8.2348384,4.80291114 Z" id="Path"></path>
            </g>
            <g id="Group">
                <path d="M25.279541,10.7399554 L25.279541,13.6125837 L18.0431431,13.6125837 L18.0431431,10.6413225 L19.4094587,10.6413225 L19.4094587,10.5528739 C19.4093541,9.54314314 19.4097028,8.53337751 19.408796,7.52361189 C19.4085519,7.22802734 19.3429827,6.95071847 19.1620745,6.70999581 C18.9535435,6.4324428 18.6643764,6.28669085 18.3315778,6.22453962 C17.7297015,6.1121303 17.1664342,6.20120675 16.6734445,6.58464704 C16.2237374,6.9344308 15.9908273,7.40767997 15.9809919,7.97091239 C15.965611,8.85086496 15.9770857,9.7313058 15.9773647,10.6115025 C16.4456613,10.6370675 16.9092494,10.6370675 17.3783831,10.6370675 L17.3783831,13.6132464 L9.97827148,13.6132464 L9.97827148,10.642334 L11.309082,10.642334 L11.309082,6.17850167 L9.97781808,6.17850167 L9.97781808,3.2035784 L15.8161272,3.2035784 L15.8161272,5.25484794 C15.9030413,5.1617606 15.9724121,5.09354074 16.0349121,5.01949637 C16.4882813,4.48245675 17.0177874,4.04282924 17.6585868,3.74497768 C18.1045619,3.53770229 18.5738002,3.41158622 19.0609305,3.35260882 C19.8850098,3.25285993 20.7046945,3.27130999 21.515067,3.46421596 C22.1074219,3.60522461 22.6517508,3.84671456 23.1090611,4.26032366 C23.5845075,4.69029018 23.8700126,5.22879464 23.9865374,5.85250419 C24.039525,6.13609274 24.0673374,6.42381061 24.0696498,6.71229771 C24.0783691,7.98106166 24.0734166,9.24993025 24.0734515,10.5187988 L24.0734515,10.6339983 L25.279541,10.6339983 L25.279541,10.7399554 Z M1.76719448,3.19897461 L0.000871930804,3.19897461 L0.000871930804,0.00163922991 L9.47049386,0.00163922991 L9.47049386,3.18062919 L7.70361328,3.18062919 L7.70361328,10.6348354 L9.46937779,10.6348354 L9.46937779,13.6115723 L0.00258091518,13.6115723 L0.00258091518,10.6418108 L1.76719448,10.6418108 L1.76719448,3.19897461 Z" id="Shape"></path>
            </g>
        </g>
    </g>
</svg>