<?xml version="1.0" encoding="UTF-8"?>
<svg width="36px" height="31px" viewBox="0 0 36 31" version="1.1" xmlns="http://www.w3.org/2000/svg" xmlns:xlink="http://www.w3.org/1999/xlink">
    <!-- Generator: Sketch 61 (89581) - https://sketch.com -->
    <title>380-briefcase</title>
    <desc>Created with Sketch.</desc>
    <defs>
        <linearGradient x1="13.1147161%" y1="25.3785184%" x2="100%" y2="79.5857855%" id="linearGradient-1">
            <stop stop-color="#E3E7F2" offset="0.0580658784%"></stop>
            <stop stop-color="#D0D8EE" offset="100%"></stop>
        </linearGradient>
    </defs>
    <g id="Home-Revamp" stroke="none" stroke-width="1" fill="none" fill-rule="evenodd">
        <g id="LandingPage-Elrond-Revamp" transform="translate(-1108.000000, -814.000000)">
            <g id="Inline-menu" transform="translate(508.000000, 766.000000)">
                <g id="380-briefcase" transform="translate(600.000000, 48.000000)">
                    <g id="Group" transform="translate(3.585938, 4.218750)" fill="#A4C2F7" fill-rule="nonzero">
                        <rect id="Rectangle" x="0.0140625" y="0.0093515625" width="4.80002344" height="1.8"></rect>
                        <rect id="Rectangle" x="24.0140391" y="0.0093515625" width="4.80002344" height="1.8"></rect>
                    </g>
                    <path d="M1.80597656,6.02810156 L14.9999766,6.02810156 C15.6660469,6.02810156 16.2059766,6.56803125 16.2059766,7.23410156 L16.2059766,28.8220781 C16.2059766,29.4881484 15.6660469,30.0280781 14.9999766,30.0280781 L1.80597656,30.0280781 C1.13990625,30.0280781 0.599976563,29.4881484 0.599976563,28.8220781 L0.599976563,7.23410156 C0.599976563,6.56810156 1.13997656,6.02810156 1.80597656,6.02810156 Z" id="Path" fill="#FFFFFF" fill-rule="nonzero"></path>
                    <path d="M21.0000234,6.02810156 L34.1940234,6.02810156 C34.8600938,6.02810156 35.4000234,6.56803125 35.4000234,7.23410156 L35.4000234,28.8220781 C35.4000234,29.4881484 34.8600938,30.0280781 34.1940234,30.0280781 L21.0000234,30.0280781 C20.3339531,30.0280781 19.7940234,29.4881484 19.7940234,28.8220781 L19.7940234,7.23410156 C19.7940234,6.56810156 20.3339531,6.02810156 21.0000234,6.02810156 Z" id="Path" fill="#A4C2F7" fill-rule="nonzero"></path>
                    <path d="M3.60597656,6.02810156 L32.3939531,6.02810156 C33.0600234,6.02810156 33.5999531,6.56803125 33.5999531,7.23410156 L33.5999531,28.8220781 C33.5999531,29.4881484 33.0600234,30.0280781 32.3939531,30.0280781 L3.60597656,30.0280781 C2.93990625,30.0280781 2.39997656,29.4881484 2.39997656,28.8220781 L2.39997656,7.23410156 C2.39997656,6.56810156 2.93997656,6.02810156 3.60597656,6.02810156 Z" id="Path" fill="url(#linearGradient-1)" fill-rule="nonzero"></path>
                    <g id="Group" fill="#1B46C2">
                        <path d="M34.1941641,30.628125 L1.80583594,30.628125 C0.809085938,30.6268594 0.0013359375,29.8191094 0,28.8222891 L0,7.23396094 C0.0013359375,6.23714063 0.809085938,5.42939063 1.80583594,5.428125 L34.1940938,5.428125 C35.1909141,5.42946094 35.9986641,6.23721094 35.9999297,7.23396094 L35.9999297,28.8222188 C35.9987344,29.8191094 35.1909844,30.6268594 34.1941641,30.628125 Z M1.80583594,6.62807813 C1.47142969,6.62857031 1.20044531,6.89955469 1.19995313,7.23403125 L1.19995313,28.8222891 C1.200375,29.1566953 1.47135938,29.4276797 1.80583594,29.4281719 L34.1940938,29.4281719 C34.5285,29.42775 34.7995547,29.1567656 34.7999766,28.8222891 L34.7999766,7.23396094 C34.7995547,6.89955469 34.5285703,6.62857031 34.1940938,6.62807813 L1.80583594,6.62807813 L1.80583594,6.62807813 Z" id="Shape" fill-rule="nonzero"></path>
                        <path d="M23.9999766,6.6281485 L12.0000234,6.6281485 C11.8408359,6.62821875 11.6881875,6.56507813 11.5756875,6.45250781 C11.4631172,6.3399375 11.4000468,6.18728906 11.4000468,6.02817188 L11.4000468,1.95173437 C11.4013828,0.889875 12.2617969,0.029390625 13.3236562,0.028125 L22.6764141,0.028125 C23.7382734,0.0294609375 24.5986875,0.889945312 24.6000235,1.95173437 L24.6000235,6.02810156 C24.6000235,6.18728906 24.5369531,6.3399375 24.4243828,6.4524375 C24.3118125,6.56500781 24.1591641,6.62821875 23.9999766,6.6281485 L23.9999766,6.6281485 Z M12.6,5.428125 L23.4,5.428125 L23.4,1.95173437 C23.3995781,1.55228906 23.0758594,1.22857031 22.6764141,1.22807812 L13.3236562,1.22807812 C12.9242109,1.2285 12.6004922,1.55221875 12.6,1.95173437 L12.6,5.428125 Z" id="Shape" fill-rule="nonzero"></path>
                        <path d="M5.89999988,30.6281251 C5.60815099,30.6281251 5.3282906,30.5650547 5.12203697,30.4524844 C4.91565443,30.3399141 4.79989458,30.1872656 4.80002338,30.0281484 L4.80002338,6.02810156 C4.80002338,5.69671875 5.29258294,5.428125 5.89999988,5.428125 C6.50754573,5.428125 6.99997638,5.69678906 6.99997638,6.02810156 L6.99997638,30.0280781 C7.00010518,30.1872656 6.88434533,30.3399141 6.67796279,30.4524141 C6.47170916,30.5650547 6.19184877,30.6281251 5.89999988,30.6281251 Z" id="Path" fill-rule="nonzero"></path>
                        <path d="M30.0999999,30.6281251 C29.808151,30.6281251 29.5282906,30.5650547 29.322037,30.4524844 C29.1156544,30.3399141 28.9998946,30.1872656 29.0000234,30.0281484 L29.0000234,6.02810156 C29.0000234,5.69671875 29.492454,5.428125 30.0999999,5.428125 C30.7075457,5.428125 31.1999764,5.69678906 31.1999764,6.02810156 L31.1999764,30.0280781 C31.2001052,30.1872656 31.0843453,30.3399141 30.8779628,30.4524141 C30.6717092,30.5650547 30.3918488,30.6281251 30.0999999,30.6281251 Z" id="Path" fill-rule="nonzero"></path>
                        <rect id="Rectangle" stroke="#1B46C2" x="27.5" y="16.5" width="5" height="3" rx="1"></rect>
                        <rect id="Rectangle" stroke="#1B46C2" x="3.5" y="16.5" width="5" height="3" rx="1"></rect>
                        <path d="M8.40002344,6.6281485 L3.6,6.6281485 C3.4408125,6.62821875 3.28816406,6.56507813 3.17566406,6.45250781 C3.06309375,6.3399375 2.99995313,6.18728906 3.00002338,6.02817187 L3.00002338,4.22817188 C2.99995313,4.06898438 3.06309375,3.91633594 3.17566406,3.80383594 C3.28823438,3.69126563 3.44088281,3.628125 3.6,3.62819525 L8.40002344,3.62819525 C8.55921094,3.628125 8.71185937,3.69126563 8.82435937,3.80383594 C8.93692969,3.91640625 9.00007031,4.06905469 9.00000006,4.22817188 L9.00000006,6.02817187 C9.00007031,6.18735937 8.93692969,6.34000781 8.82435937,6.45250781 C8.71178906,6.56500781 8.55914062,6.62821875 8.40002344,6.6281485 L8.40002344,6.6281485 Z M4.19997656,5.428125 L7.79997656,5.428125 L7.79997656,4.82814844 L4.19997656,4.82814844 L4.19997656,5.428125 Z" id="Shape" fill-rule="nonzero"></path>
                        <path d="M32.4,6.6281485 L27.5999766,6.6281485 C27.4407891,6.62821875 27.2881406,6.56507813 27.1756406,6.45250781 C27.0630703,6.3399375 26.9999297,6.18728906 26.9999999,6.02817187 L26.9999999,4.22817188 C26.9999297,4.06898438 27.0630703,3.91633594 27.1756406,3.80383594 C27.2882109,3.69126563 27.4408594,3.628125 27.5999766,3.62819525 L32.4,3.62819525 C32.5591875,3.628125 32.7118359,3.69126563 32.8243359,3.80383594 C32.9369062,3.91640625 33.0000469,4.06905469 32.9999766,4.22817188 L32.9999766,6.02817187 C33.0000469,6.18735937 32.9369062,6.34000781 32.8243359,6.45250781 C32.7118359,6.56500781 32.5591875,6.62821875 32.4,6.6281485 L32.4,6.6281485 Z M28.2000234,5.428125 L31.8000234,5.428125 L31.8000234,4.82814844 L28.2000234,4.82814844 L28.2000234,5.428125 Z" id="Shape" fill-rule="nonzero"></path>
                    </g>
                </g>
            </g>
        </g>
    </g>
</svg>