<?xml version="1.0" encoding="UTF-8"?>
<svg width="31px" height="44px" viewBox="0 0 31 44" version="1.1" xmlns="http://www.w3.org/2000/svg" xmlns:xlink="http://www.w3.org/1999/xlink">
    <!-- Generator: Sketch 61 (89581) - https://sketch.com -->
    <title>brain</title>
    <desc>Created with Sketch.</desc>
    <defs>
        <linearGradient x1="40.3167894%" y1="8.38967734%" x2="63.1261164%" y2="100%" id="linearGradient-1">
            <stop stop-color="#E3E7F2" offset="0.0580658784%"></stop>
            <stop stop-color="#D0D8EE" offset="100%"></stop>
        </linearGradient>
        <linearGradient x1="13.1147161%" y1="25.1336412%" x2="100%" y2="79.880036%" id="linearGradient-2">
            <stop stop-color="#E3E7F2" offset="0.0580658784%"></stop>
            <stop stop-color="#D0D8EE" offset="100%"></stop>
        </linearGradient>
    </defs>
    <g id="Home-Revamp" stroke="none" stroke-width="1" fill="none" fill-rule="evenodd">
        <g id="LandingPage-Elrond-Revamp" transform="translate(-1144.000000, -5480.000000)" fill-rule="nonzero">
            <g id="Get-Involved" transform="translate(80.000000, 5306.000000)">
                <g id="virtual-machine" transform="translate(880.000000, 156.000000)">
                    <g id="brain" transform="translate(184.000000, 18.000000)">
                        <path d="M29.5344075,16.2819464 C28.6030684,15.8056518 27.6724621,17.2198803 27.6724621,17.2198803 L27.614574,17.2125527 C27.7339927,15.0183363 27.7339927,12.819249 27.614574,10.6250325 C27.1837106,1.20172782 16.329324,0.732760864 16.329324,0.732760864 L14.5853531,0.732760864 C14.5853531,0.732760864 3.735363,1.20172782 3.30083581,10.6250325 C3.18141709,12.819249 3.18141709,15.0183363 3.30083581,17.2125527 L3.2429477,17.2198803 C3.2429477,17.2198803 2.31160864,15.8056518 1.38100234,16.2819464 C0.458456414,16.7435857 0.91276815,20.9862711 0.91276815,20.9862711 C0.91276815,20.9862711 1.37440749,24.2543846 4.12226073,25.6759407 C4.00428623,28.4018111 3.79984595,30.8785428 6.77485506,33.7069997 C7.12810083,34.0405301 7.4632093,34.3927609 7.77873744,34.7621754 L7.77873744,41.7380588 C7.77872733,42.5445911 8.43040931,43.1995479 9.23693156,43.2035805 L21.6784783,43.2035805 C22.4850005,43.1995479 23.1366825,42.5445911 23.1366724,41.7380588 L23.1366724,34.7621754 C23.4522005,34.3927609 23.787309,34.0405301 24.1405548,33.7069997 C27.1155639,30.8785428 26.9103908,28.4018111 26.7931491,25.6759407 C29.5410023,24.2543846 30.0026417,20.9862711 30.0026417,20.9862711 C30.0026417,20.9862711 30.4569534,16.7435857 29.5344075,16.2819464 Z" id="Shape" fill="#35495E"></path>
                        <path d="M4.16622639,24.283695 C4.16622639,24.7599896 4.15083841,25.2216289 4.12226073,25.6759407 C1.37440749,24.2543846 0.91276815,20.9862711 0.91276815,20.9862711 C0.91276815,20.9862711 0.458456414,16.7435857 1.38100234,16.2819464 C2.31160864,15.8056518 3.2429477,17.2198803 3.2429477,17.2198803 L3.30083581,17.2125527 C3.53531928,20.8470466 4.16622639,21.9974811 4.16622639,24.283695 Z" id="Shape" fill="#FFFFFF"></path>
                        <path d="M27.6160396,17.2125527 C27.3815561,20.8470466 26.7513817,21.9974811 26.7513817,24.283695 C26.7513817,24.7599896 26.766037,25.2216289 26.7953474,25.6759407 C26.9125891,28.4018111 27.1177622,30.8785428 24.1427531,33.7069997 C23.7891318,34.0401529 23.4540034,34.3924046 23.1388707,34.7621754 C20.6328285,37.671236 20.2957585,40.3018475 17.1961801,40.3018475 L13.7228936,40.3018475 C10.6233151,40.3018475 10.2862451,37.671236 7.78020297,34.7621754 C7.46507022,34.3924046 7.12994189,34.0401529 6.77632058,33.7069997 C3.80131148,30.8785428 4.00648452,28.4018111 4.12372626,25.6759407 C4.15303669,25.2216289 4.16769191,24.7599896 4.16769191,24.283695 C4.16769191,21.9974811 3.53751756,20.8470466 3.30303409,17.2125527 C3.18324117,15.0183465 3.18324117,12.8192388 3.30303409,10.6250325 C3.69872495,2.01509238 12.7996149,0.879313037 14.3603955,0.747416081 C14.5069477,0.732760864 14.5875514,0.732760864 14.5875514,0.732760864 L16.3315222,0.732760864 C16.3315222,0.732760864 27.1837106,1.20172782 27.6160396,10.6250325 C27.7358325,12.8192388 27.7358325,15.0183465 27.6160396,17.2125527 Z" id="Shape" fill="#A4C2F7"></path>
                        <path d="M25.417757,17.2125527 C25.1832735,20.8470466 24.5530991,21.9974811 24.5530991,24.283695 C24.5530991,24.7599896 24.5677544,25.2216289 24.5970648,25.6759407 C24.7143065,28.4018111 24.9194796,30.8785428 21.9444705,33.7069997 C21.5908492,34.0401529 21.2557208,34.3924046 20.9405881,34.7621754 C18.5517877,37.5320114 18.134114,40.0527088 15.4155712,40.2871923 L15.4082436,40.2871923 C15.2763466,40.2945199 15.1444496,40.3018475 14.9978975,40.3018475 L13.7228936,40.3018475 C10.6233151,40.3018475 10.2862451,37.671236 7.78020297,34.7621754 C7.46507022,34.3924046 7.12994189,34.0401529 6.77632058,33.7069997 C3.80131148,30.8785428 4.00648452,28.4018111 4.12372626,25.6759407 C4.15303669,25.2216289 4.16769191,24.7599896 4.16769191,24.283695 C4.16769191,21.9974811 3.53751756,20.8470466 3.30303409,17.2125527 C3.18324117,15.0183465 3.18324117,12.8192388 3.30303409,10.6250325 C3.69872495,2.01509238 12.7996149,0.879313037 14.3603955,0.747416081 C14.5802238,0.769398907 14.9392766,0.80603695 15.4082436,0.879313037 C18.2953214,1.34095238 25.080687,3.21682019 25.417757,10.6250325 C25.5375499,12.8192388 25.5375499,15.0183465 25.417757,17.2125527 Z" id="Shape" fill="#FFFFFF"></path>
                        <path d="M25.417757,17.2125527 C25.1832735,20.8470466 24.5530991,21.9974811 24.5530991,24.283695 C24.5530991,24.7599896 24.5677544,25.2216289 24.5970648,25.6759407 C24.7143065,28.4018111 24.9194796,30.8785428 21.9444705,33.7069997 C21.5908492,34.0401529 21.2557208,34.3924046 20.9405881,34.7621754 C18.5517877,37.5320114 18.134114,40.0527088 15.4155712,40.2871923 L15.4082436,40.2871923 C12.6897008,40.0527088 12.2720271,37.5320114 9.88322665,34.7621754 C9.5680939,34.3924046 9.23296557,34.0401529 8.87934426,33.7069997 C5.90433515,30.8785428 6.1095082,28.4018111 6.22674993,25.6759407 C6.25606037,25.2216289 6.27071559,24.7599896 6.27071559,24.283695 C6.27071559,21.9974811 5.64054124,20.8470466 5.40605777,17.2125527 C5.28626485,15.0183465 5.28626485,12.8192388 5.40605777,10.6250325 C5.74312776,3.21682019 12.5284934,1.34095238 15.4082436,0.879313037 C18.2953214,1.34095238 25.080687,3.21682019 25.417757,10.6250325 C25.5375499,12.8192388 25.5375499,15.0183465 25.417757,17.2125527 Z" id="Shape" fill="url(#linearGradient-1)"></path>
                        <path d="M30.0026417,20.9862711 C30.0026417,20.9862711 29.5410023,24.2543846 26.7931491,25.6759407 C26.7638387,25.2216289 26.7491835,24.7599896 26.7491835,24.283695 C26.7491835,21.9974811 27.3800906,20.8470466 27.614574,17.2125527 L27.6724621,17.2198803 C27.6724621,17.2198803 28.6030684,15.8056518 29.5344075,16.2819464 C30.4569534,16.7435857 30.0026417,20.9862711 30.0026417,20.9862711 Z" id="Shape" fill="#A4C2F7"></path>
                        <path d="M23.1366724,34.7621754 L23.1366724,41.7380588 C23.1366724,42.5445911 22.4850005,43.1995479 21.6784783,43.2035805 L9.2361988,43.2035805 C8.42996305,43.1991462 7.77873744,42.5443068 7.77873744,41.7380588 L7.77873744,34.7621754 C10.2840468,37.671236 10.6233151,40.3018475 13.7206953,40.3018475 L17.1939818,40.3018475 C20.2957585,40.3018475 20.6306302,37.671236 23.1366724,34.7621754 Z" id="Shape" fill="#1B46C2"></path>
                        <path d="M11.3340932,43.2035805 L9.23839709,43.2035805 C8.43187483,43.1995479 7.78020297,42.5445911 7.78020297,41.7380588 L7.78020297,34.7621754 C8.54644726,35.6889829 9.24673151,36.6684014 9.87589904,37.6932188 L9.87589904,41.7380588 C9.87588893,42.5445911 10.5275709,43.1995479 11.3340932,43.2035805 Z" id="Shape" fill="#8097D8" opacity="0.522879464"></path>
                        <path d="M24.5897372,15.3073744 C24.4922573,15.5948244 24.3671009,15.8721317 24.2160291,16.1353942 C22.9570411,18.1100903 20.4448249,18.8696699 18.302649,17.9233307 C17.9291301,17.761008 17.5751576,17.5569822 17.2474733,17.3151392 C17.1961801,17.2785012 17.0789383,17.1832423 16.9250585,17.0513453 C16.3681603,16.5750507 15.3203123,15.615134 15.4595368,15.4172886 C14.2284986,17.2491907 12.3086651,18.6267812 10.0151236,18.2677283 C8.02131405,18.0188679 6.43054457,16.4848051 6.1095082,14.5013375 C5.86122776,12.6260788 6.04417755,10.7188899 6.64442363,8.92502732 C6.66640645,8.85907884 6.68838928,8.79313037 6.71037211,8.7345095 C6.88122607,8.24158581 7.10738194,7.76960831 7.3845121,7.32760864 C7.88874126,6.52530485 8.56440569,5.84463552 9.36296643,5.33449909 C10.8990777,4.39518024 12.637799,3.83738238 14.4336716,3.70776997 C14.5142753,3.70776997 14.594879,3.70044236 14.6754827,3.69311475 L16.2509186,3.69311475 C16.7978137,3.69479291 17.3430297,3.75373519 17.8776477,3.86897736 C18.2871257,3.95057156 18.6909678,4.05826282 19.0867031,4.19139214 L19.0940307,4.19139214 C19.833551,4.42798491 20.5458753,4.74239011 21.2190372,5.12932605 C21.8854872,5.50954528 22.4785857,6.00586205 22.9703357,6.59484778 C23.3270571,7.01086108 23.6321474,7.46849657 23.8789591,7.95778298 C24.1390922,8.49207732 24.3429203,9.05199082 24.4871507,9.62847775 C24.9048244,11.3358106 25.1906011,13.556076 24.5897372,15.3073744 Z" id="Shape" fill="url(#linearGradient-2)"></path>
                        <path d="M24.5897372,15.3073744 C24.4922573,15.5948244 24.3671009,15.8721317 24.2160291,16.1353942 C23.2458823,17.6685621 21.4821299,18.5091226 19.6802394,18.2970388 C19.4879603,18.2735106 19.2971453,18.2392617 19.1086859,18.1944523 C20.3215072,17.940184 21.374737,17.1946989 22.0177466,16.1353942 C22.1688183,15.8721317 22.2939747,15.5948244 22.3914546,15.3073744 C22.9923185,13.556076 22.7065418,11.3358106 22.2888681,9.62847775 C22.1446377,9.05199082 21.9408096,8.49207732 21.6806766,7.95778298 C21.4338648,7.46849657 21.1287745,7.01086108 20.7720531,6.59484778 C20.2803031,6.00586205 19.6872046,5.50954528 19.0207546,5.12932605 C18.3475927,4.74239011 17.6352684,4.42798491 16.8957481,4.19139214 L16.8884205,4.19139214 C16.4926852,4.05826282 16.0888431,3.95057156 15.6793651,3.86897736 C15.276918,3.77980099 14.867466,3.72586119 14.4556544,3.70776997 C14.5289305,3.70776997 14.6022066,3.70044236 14.6754827,3.69311475 L16.2509186,3.69311475 C16.7978137,3.69479291 17.3430297,3.75373519 17.8776477,3.86897736 C18.2871257,3.95057156 18.6909678,4.05826282 19.0867031,4.19139214 L19.0940307,4.19139214 C19.833551,4.42798491 20.5458753,4.74239011 21.2190372,5.12932605 C21.8854872,5.50954528 22.4785857,6.00586205 22.9703357,6.59484778 C23.3270571,7.01086108 23.6321474,7.46849657 23.8789591,7.95778298 C24.1390922,8.49207732 24.3429203,9.05199082 24.4871507,9.62847775 C24.9048244,11.3358106 25.1906011,13.556076 24.5897372,15.3073744 Z" id="Shape" fill="#7FACFA"></path>
                        <path d="M4.12299349,26.4350809 C4.00626669,26.4348951 3.8912492,26.4070196 3.78738902,26.3537445 C0.736172782,24.7768431 0.212248764,21.2691168 0.19173146,21.1203664 C-0.0442175384,18.9308769 -0.083786625,16.2284549 1.05345824,15.6554359 C2.24712568,15.0494426 3.3777757,16.117808 3.8570013,16.8447067 C4.0714377,17.1823177 3.97554409,17.6295113 3.64153566,17.8495168 C3.30752722,18.0695224 2.85880486,17.9810579 2.63329066,17.6507437 C2.42079001,17.3334582 1.99871975,16.9179828 1.76203799,16.9472933 C1.51583034,17.3810877 1.45940775,19.1983346 1.64552901,20.9393744 C1.64552901,20.9393744 2.0932459,23.827185 4.46006349,25.0501629 C4.76013693,25.2055534 4.91503492,25.545997 4.83504263,25.8743132 C4.75505034,26.2026293 4.46091403,26.4336683 4.12299349,26.4336154 L4.12299349,26.4350809 Z" id="Shape" fill="#1B46C2"></path>
                        <path d="M2.56807494,10.620636 C2.657213,8.91162586 3.13139444,7.24485181 3.95519126,5.74484517 C4.83518594,4.26924277 6.07606285,3.04173032 7.56110747,2.17776529 C9.69850833,0.935477625 12.0926722,0.200682404 14.5589737,0.0300431954 L14.6227239,1.49556492 C12.4029206,1.65790288 10.2485875,2.32023505 8.32098048,3.43298465 C7.04399087,4.17119276 5.97660597,5.22319235 5.21993651,6.48933021 C4.5165242,7.78361686 4.11073224,9.21853322 4.03213115,10.6895155 L2.56807494,10.620636 Z" id="Shape" fill="#FFFFFF"></path>
                        <path d="M4.10540723,7.10191829 C3.91982765,7.02005785 3.70801348,7.02192202 3.52390343,7.10703611 C3.33979338,7.1921502 3.20115483,7.35230034 3.14329222,7.54670414 C2.98620151,8.04728437 2.85558911,8.5557922 2.75199792,9.07011397 L2.56807494,10.620636 L4.03359667,10.68805 L4.19626958,9.3280458 C4.25928702,8.87739787 4.42708925,8.45606037 4.53333958,8.01713661 C4.63668823,7.64821284 4.45477821,7.25916212 4.10540723,7.10191829 Z" id="Shape" fill="#1B46C2"></path>
                        <path d="M14.6227239,1.4940994 L14.5589737,0.0285776737 C12.0931745,0.199438081 9.69953617,0.934225879 7.56257299,2.17629977 L6.91041582,2.60569763 C6.74159959,2.71541622 6.62736479,2.89170794 6.59619328,3.09061855 C6.56502176,3.28952916 6.61985084,3.49231508 6.74701015,3.64841634 C6.99359458,3.94655301 7.42346406,4.01469156 7.75015977,3.80742545 L8.32098048,3.4300536 C10.2487114,2.31781699 12.4030372,1.65598805 14.6227239,1.4940994 Z" id="Shape" fill="#1B46C2"></path>
                        <path d="M4.62053812,4.75561801 C4.50545466,4.92807083 4.45581518,5.13598491 4.4805808,5.3418267 L4.52014988,5.4803185 C4.53825479,5.5268295 4.56293092,5.57050625 4.59342597,5.61001717 C4.61588084,5.65104438 4.6448335,5.68816317 4.67915899,5.7199313 C4.71541911,5.75299691 4.75385293,5.78359708 4.79420245,5.81152641 C4.9579039,5.91265181 5.15162694,5.95383091 5.34230757,5.92803539 C5.43158275,5.91163679 5.51689564,5.87830756 5.59364455,5.82984543 C5.81584598,5.67761924 5.94425429,5.42190958 5.93364559,5.1527744 C5.92235258,5.05909086 5.89482916,4.96809001 5.85230913,4.88385116 C5.81123568,4.79756355 5.75431397,4.71976225 5.6845069,4.65449701 C5.53764047,4.52369176 5.34435697,4.45741559 5.14812594,4.47057403 C4.94109888,4.49081255 4.75093883,4.5935518 4.62053812,4.75561801 Z" id="Shape" fill="#1B46C2"></path>
                        <path d="M17.1961801,41.0639188 L13.7228936,41.0639188 C11.1780151,41.0639188 10.1726672,39.5199917 9.00757741,37.7305896 C8.24235964,36.4672892 7.32274725,35.3042355 6.26998283,34.2682946 C3.14109394,31.2984148 3.26566328,28.5637512 3.38656883,25.9206828 C3.4114827,25.3952933 3.4356638,24.8618434 3.4356638,24.3152037 C3.42046358,23.3426797 3.31002196,22.373984 3.10592142,21.4229966 C2.75786001,19.5009649 2.28083268,16.8688878 2.56807494,10.620636 C2.58011729,10.3588457 2.73090831,10.123366 2.96364649,10.0028999 C3.19638466,9.88243384 3.47571153,9.89528287 3.69640736,10.0366069 C3.91710318,10.177931 4.04563902,10.4262597 4.03359667,10.68805 C3.75294926,16.7699651 4.19480406,19.2049295 4.54652927,21.1621337 C4.76622284,22.1984755 4.88451091,23.2537425 4.89972001,24.3130055 C4.89972001,24.8823607 4.87480614,25.4385262 4.84915951,25.9851658 C4.72898673,28.61651 4.63446058,30.6946198 7.27752901,33.2021275 C8.41358431,34.3185792 9.40740296,35.5710663 10.2364174,36.9311475 C11.4410762,38.780636 12.0441384,39.5983971 13.7228936,39.5983971 L17.1961801,39.5983971 C18.8749352,39.5983971 19.4779974,38.780636 20.6826563,36.9311475 C21.5113642,35.5719192 22.5046823,34.320181 23.6400791,33.2043258 C26.2831475,30.6968181 26.1886214,28.6187083 26.0684486,25.987364 C26.042802,25.4407244 26.0178881,24.8845589 26.0178881,24.3152037 C26.0330972,23.2559408 26.1513853,22.2006737 26.3710788,21.164332 C26.7257351,19.2071278 27.1675899,16.7728962 26.8840114,10.6902482 C26.7176747,7.07627166 24.9055571,4.43613427 21.4974863,2.84091387 C19.8553574,2.09164302 18.0944202,1.63652758 16.2948842,1.49629768 L14.5904824,1.49629768 C14.1857898,1.49629768 13.8577216,1.16822947 13.8577216,0.76353682 C13.8577216,0.35884417 14.1857898,0.0307759563 14.5904824,0.0307759563 L16.3285912,0.0307759563 C16.4751434,0.0366380432 27.8915576,0.647027843 28.3509987,10.6221015 C28.638241,16.8703534 28.1612136,19.5024304 27.8131522,21.4244621 C27.6090517,22.3754495 27.4986101,23.3441452 27.4834098,24.3166693 C27.4834098,24.8633089 27.5075909,25.3967588 27.5325048,25.9221483 C27.6534104,28.5652168 27.7779797,31.2998803 24.6490908,34.2697601 C23.5963264,35.305701 22.676714,36.4687547 21.9114962,37.7320552 C20.7464065,39.5199917 19.7410585,41.0639188 17.1961801,41.0639188 Z" id="Shape" fill="#1B46C2"></path>
                        <path d="M26.7960801,26.4350829 C26.4581596,26.4350829 26.1640233,26.2040948 26.084031,25.8757787 C26.0040387,25.5474625 26.1589367,25.2070189 26.4590101,25.0516284 C28.8441468,23.8191246 29.2720791,20.9481676 29.2757429,20.9173916 C29.4596659,19.1990674 29.4039761,17.3840187 29.1570356,16.9494915 C28.9159573,16.9194483 28.4733698,17.367898 28.285783,17.6522092 C28.1438709,17.8756371 27.8924956,18.0051663 27.6281852,17.9910578 C27.3638748,17.9769427 27.1277169,17.8213961 27.010396,17.5841307 C26.8930751,17.3468653 26.912829,17.0647712 27.0620723,16.8461723 C27.5420307,16.1200062 28.6697497,15.0472443 29.8678137,15.6576341 C31.0028603,16.2299204 30.966955,18.9323424 30.7302732,21.0991163 C30.7068249,21.2705824 30.1829009,24.7783086 27.1316846,26.35521 C27.0276989,26.4079773 26.9126878,26.4353489 26.7960801,26.4350829 Z" id="Shape" fill="#1B46C2"></path>
                        <path d="M21.6784783,43.9656518 L9.24059537,43.9656518 C8.02651745,43.9656518 7.04231278,42.9814472 7.04231278,41.7673692 L7.04231278,34.7914858 C7.04231278,34.3867932 7.37038103,34.058725 7.77507364,34.058725 C8.17976625,34.058725 8.5078345,34.3867932 8.5078345,34.7914858 L8.5078345,41.7673692 C8.5078345,42.1720619 8.83590275,42.5001301 9.24059537,42.5001301 L21.6784783,42.5001301 C22.0831709,42.5001301 22.4112391,42.1720619 22.4112391,41.7673692 L22.4112391,34.7914858 C22.4112391,34.3867932 22.7393074,34.058725 23.144,34.058725 C23.5486926,34.058725 23.8767609,34.3867932 23.8767609,34.7914858 L23.8767609,41.7673692 C23.8767609,42.9814472 22.8925562,43.9656518 21.6784783,43.9656518 Z" id="Shape" fill="#1B46C2"></path>
                        <path d="M15.4595368,13.1896956 C15.0548442,13.1896956 14.726776,12.8616273 14.726776,12.4569347 L14.726776,3.69311475 C14.726776,3.2884221 15.0548442,2.96035389 15.4595368,2.96035389 C15.8642294,2.96035389 16.1922977,3.2884221 16.1922977,3.69311475 L16.1922977,12.4569347 C16.1922977,12.8616273 15.8642294,13.1896956 15.4595368,13.1896956 Z" id="Shape" fill="#1B46C2"></path>
                        <path d="M12.5284934,10.2586521 C12.1238008,10.2586521 11.7957325,9.93058384 11.7957325,9.52589123 L11.7957325,8.79313037 C11.7957325,7.57905245 12.7799372,6.59484778 13.9940151,6.59484778 L15.4595368,6.59484778 C15.8642294,6.59484778 16.1922977,6.92291599 16.1922977,7.32760864 C16.1922977,7.73230125 15.8642294,8.0603695 15.4595368,8.0603695 L13.9940151,8.0603695 C13.5893225,8.0603695 13.2612542,8.38843775 13.2612542,8.79313037 L13.2612542,9.52589123 C13.2612542,9.93058384 12.933186,10.2586521 12.5284934,10.2586521 Z" id="Shape" fill="#1B46C2"></path>
                        <path d="M16.9250585,10.991413 L15.4595368,10.991413 C15.0548442,10.991413 14.726776,10.6633447 14.726776,10.2586521 C14.726776,9.85395948 15.0548442,9.52589123 15.4595368,9.52589123 L16.9250585,9.52589123 C17.3297512,9.52589123 17.6578194,9.19782298 17.6578194,8.79313037 C17.6578194,8.38843775 17.9858877,8.0603695 18.3905803,8.0603695 C18.7952729,8.0603695 19.1233411,8.38843775 19.1233411,8.79313037 C19.1233411,10.0072083 18.1391365,10.991413 16.9250585,10.991413 Z" id="Shape" fill="#1B46C2"></path>
                        <path d="M18.3905803,6.59484778 C17.9858877,6.59484778 17.6578194,6.26677956 17.6578194,5.86208691 L17.6578194,4.39656518 C17.6578194,3.99187253 17.9858877,3.66380432 18.3905803,3.66380432 C18.7952729,3.66380432 19.1233411,3.99187253 19.1233411,4.39656518 L19.1233411,5.86208691 C19.1233411,6.26677956 18.7952729,6.59484778 18.3905803,6.59484778 Z" id="Shape" fill="#1B46C2"></path>
                        <path d="M21.3216237,9.52589123 C20.9169311,9.52589123 20.5888629,9.19782298 20.5888629,8.79313037 C20.5888629,7.57905245 21.5730675,6.59484778 22.7871455,6.59484778 L23.5125787,6.59484778 C23.9172713,6.59484778 24.2453396,6.92291599 24.2453396,7.32760864 C24.2453396,7.73230125 23.9172713,8.0603695 23.5125787,8.0603695 L22.7871455,8.0603695 C22.3824528,8.0603695 22.0543846,8.38843775 22.0543846,8.79313037 C22.0543846,9.19782298 21.7263163,9.52589123 21.3216237,9.52589123 Z" id="Shape" fill="#1B46C2"></path>
                        <path d="M22.0543846,16.120739 C20.8403067,16.120739 19.856102,15.1365343 19.856102,13.9224564 C19.856102,12.7083785 20.8403067,11.7241738 22.0543846,11.7241738 C22.4590772,11.7241738 22.7871455,12.0522421 22.7871455,12.4569347 C22.7871455,12.8616273 22.4590772,13.1896956 22.0543846,13.1896956 C21.649692,13.1896956 21.3216237,13.5177638 21.3216237,13.9224564 C21.3216237,14.327149 21.649692,14.6552173 22.0543846,14.6552173 C22.4590772,14.6552173 22.7871455,14.9832855 22.7871455,15.3879781 C22.7871455,15.7926708 22.4590772,16.120739 22.0543846,16.120739 Z" id="Shape" fill="#1B46C2"></path>
                        <path d="M17.6578194,18.3190216 C17.2531268,18.3190216 16.9250585,17.9909533 16.9250585,17.5862607 L16.9250585,14.6552173 C16.9250585,14.2505247 17.2531268,13.9224564 17.6578194,13.9224564 C18.062512,13.9224564 18.3905803,14.2505247 18.3905803,14.6552173 L18.3905803,17.5862607 C18.3905803,17.9909533 18.062512,18.3190216 17.6578194,18.3190216 Z" id="Shape" fill="#1B46C2"></path>
                        <path d="M11.0629716,16.120739 L10.3302108,16.120739 C9.92551816,16.120739 9.59744991,15.7926708 9.59744991,15.3879781 C9.59744991,14.9832855 9.92551816,14.6552173 10.3302108,14.6552173 L11.0629716,14.6552173 C11.4676643,14.6552173 11.7957325,14.327149 11.7957325,13.9224564 L11.7957325,12.4569347 C11.7957325,12.0522421 12.1238008,11.7241738 12.5284934,11.7241738 C12.933186,11.7241738 13.2612542,12.0522421 13.2612542,12.4569347 L13.2612542,13.9224564 C13.2612542,15.1365343 12.2770496,16.120739 11.0629716,16.120739 Z" id="Shape" fill="#1B46C2"></path>
                        <path d="M9.59744991,13.1896956 C9.1927573,13.1896956 8.86468905,12.8616273 8.86468905,12.4569347 L8.86468905,10.991413 C8.86468905,10.5867203 9.1927573,10.2586521 9.59744991,10.2586521 C10.0021425,10.2586521 10.3302108,10.5867203 10.3302108,10.991413 L10.3302108,12.4569347 C10.3302108,12.8616273 10.0021425,13.1896956 9.59744991,13.1896956 Z" id="Shape" fill="#1B46C2"></path>
                        <path d="M9.59744991,8.79313037 L6.98882123,8.79313037 C6.58412858,8.79313037 6.25606037,8.46506212 6.25606037,8.0603695 C6.25606037,7.65567689 6.58412858,7.32760864 6.98882123,7.32760864 L9.59744991,7.32760864 C10.0021425,7.32760864 10.3302108,7.65567689 10.3302108,8.0603695 C10.3302108,8.46506212 10.0021425,8.79313037 9.59744991,8.79313037 Z" id="Shape" fill="#1B46C2"></path>
                        <path d="M20.2107583,19.0598428 C20.006108,19.0595139 19.8016211,19.0482622 19.5981702,19.0261358 C18.5903172,18.9007672 17.6323258,18.5157022 16.8180755,17.9086755 C16.3108559,17.5501802 15.8387965,17.1443661 15.4082436,16.696689 C14.1152655,18.3890933 12.0184141,19.2642474 9.90594223,18.9931616 C7.60459983,18.6920425 5.77033385,16.9223193 5.38700598,14.6332345 C5.11625601,12.6406857 5.30781161,10.6125532 5.94683528,8.70593182 C6.45054376,7.0616382 7.5200308,5.64872124 8.96581004,4.71751444 C10.6029611,3.71431095 12.4570032,3.11874579 14.3721197,2.98087119 L14.625655,2.96181941 L16.249453,2.96181941 C18.126365,3.02024403 19.9589832,3.54640395 21.5810211,4.49255686 C23.4236588,5.57069707 24.7333789,7.36824272 25.1949977,9.45261514 C25.6112058,11.1335686 25.962931,13.556076 25.2821962,15.5455217 C24.5586853,17.7121362 22.4934107,19.1424007 20.2107583,19.0576445 L20.2107583,19.0598428 Z M16.1857028,15.3190986 C16.6433776,15.8280038 17.1429162,16.2976388 17.6790695,16.7230684 C18.2873313,17.1804064 19.003888,17.4720283 19.7586448,17.5694072 C21.273553,17.7524039 22.7595451,17.0522592 23.5829238,15.7675483 C23.7097353,15.5468104 23.8145357,15.3141386 23.8958126,15.072891 C24.3327403,13.3387162 24.2901895,11.5184036 23.7727088,9.80653864 C23.4037189,8.11024231 22.3444826,6.64446531 20.8497257,5.76169867 C19.4511967,4.94091509 17.8700833,4.48179283 16.249453,4.42587562 L14.5018184,4.4412636 C12.8216064,4.55752293 11.1939087,5.07571231 9.75572626,5.9522165 C8.59910559,6.70000768 7.74454624,7.83310357 7.34347749,9.15071767 C6.77452517,10.8294512 6.59902996,12.6164942 6.83054489,14.3738371 C7.09915421,16.049436 8.44657167,17.3436147 10.1316326,17.5444934 C12.6054333,17.9269945 14.254878,15.8979797 14.8513453,15.0076753 C15.0212906,14.7550116 15.3297835,14.6337798 15.6262785,14.703141 C15.9227736,14.7725023 16.1454746,15.0180003 16.1857028,15.3198314 L16.1857028,15.3190986 Z" id="Shape" fill="#1B46C2"></path>
                    </g>
                </g>
            </g>
        </g>
    </g>
</svg>