<svg xmlns="http://www.w3.org/2000/svg" viewBox="0 0 37 23" fill="none" id="master-card">
  <path fill-rule="evenodd" clip-rule="evenodd" d="M36.923 11.1422C36.923 17.2958 31.9439 22.2844 25.8019 22.2844C19.6599 22.2844 14.6808 17.2958 14.6808 11.1422C14.6808 4.98852 19.6599 0 25.8019 0C31.9439 0 36.923 4.98852 36.923 11.1422Z" fill="#F79F1A"></path>
  <path fill-rule="evenodd" clip-rule="evenodd" d="M23.2034 11.1422C23.2034 17.2958 18.2243 22.2844 12.0823 22.2844C5.94028 22.2844 0.961182 17.2958 0.961182 11.1422C0.961182 4.98852 5.94028 0 12.0823 0C18.2243 0 23.2034 4.98852 23.2034 11.1422Z" fill="#EA001B"></path>
  <path fill-rule="evenodd" clip-rule="evenodd" d="M18.9421 2.37109C16.3473 4.41086 14.6816 7.58054 14.6816 11.1413C14.6816 14.702 16.3473 17.8741 18.9421 19.9138C21.537 17.8741 23.2026 14.702 23.2026 11.1413C23.2026 7.58054 21.537 4.41086 18.9421 2.37109Z" fill="#FF5F01"></path>
</svg>