<?xml version="1.0" encoding="UTF-8"?>
<svg width="38px" height="38px" viewBox="0 0 38 38" version="1.1" xmlns="http://www.w3.org/2000/svg" xmlns:xlink="http://www.w3.org/1999/xlink">
    <!-- Generator: Sketch 61 (89581) - https://sketch.com -->
    <title>48px_currency-dollar</title>
    <desc>Created with Sketch.</desc>
    <defs>
        <linearGradient x1="13.1147161%" y1="8.38967734%" x2="100%" y2="100%" id="linearGradient-1">
            <stop stop-color="#E3E7F2" offset="0.0580658784%"></stop>
            <stop stop-color="#D0D8EE" offset="100%"></stop>
        </linearGradient>
    </defs>
    <g id="Home-Revamp" stroke="none" stroke-width="1" fill="none" fill-rule="evenodd">
        <g id="LandingPage-Elrond-Revamp" transform="translate(-195.000000, -6208.000000)">
            <g id="A-Token-to-Fuel-the-Elrond-Economy" transform="translate(165.000000, 6007.000000)">
                <g id="Price" transform="translate(0.000000, 180.000000)">
                    <g id="48px_currency-dollar" transform="translate(30.000000, 21.000000)">
                        <path d="M31.6996716,31.6978902 C28.3249511,35.073026 23.747765,36.9693166 18.975159,36.9693166 C14.2025529,36.9693166 9.62522623,35.0731666 6.25064634,31.6978902 C2.87395761,28.3238791 0.97683721,23.7458986 0.97683721,18.9723415 C0.97683721,14.1987845 2.8740982,9.62080396 6.25064634,6.24679293 C10.7959185,1.69679207 17.4237492,-0.0813934345 23.635996,1.58220195 C29.8482429,3.24579734 34.7004229,8.09851295 36.3640234,14.3112656 C38.0274833,20.5238776 36.249302,27.1522479 31.6996716,31.6978902 Z" id="Path" stroke="#1B46C2" stroke-width="1.5" fill="url(#linearGradient-1)"></path>
                        <path d="M25,22.85 C25,19.730939 22.450108,18.7441345 20.2,18.1578785 L20.2,12.435585 C21.39967,12.6057825 22.357864,13.5184965 22.56034,14.6872795 C22.60648,14.953452 22.854112,15.15 23.148106,15.15 L24.36001,15.15 C24.719188,15.15 25.002784,14.861404 24.96001,14.534506 C24.656968,12.2187585 22.665916,10.397659 20.2,10.2178255 L20.2,8.55 C20.2,8.2462295 19.931386,8 19.6,8 L18.4,8 C18.068614,8 17.8,8.2462295 17.8,8.55 L17.8,10.219305 C15.119446,10.4149125 13,12.549182 13,15.15 C13,18.269061 15.549892,19.2558655 17.8,19.8421215 L17.8,25.564415 C16.60033,25.3942175 15.642136,24.4815035 15.43966,23.3127205 C15.39352,23.046548 15.145888,22.85 14.851894,22.85 L13.63999,22.85 C13.280812,22.85 12.997216,23.138596 13.03999,23.465494 C13.343032,25.7812415 15.334084,27.6023465 17.8,27.7821745 L17.8,29.45 C17.8,29.7537705 18.068614,30 18.4,30 L19.6,30 C19.931386,30 20.2,29.7537705 20.2,29.45 L20.2,27.780695 C22.880554,27.5850875 25,25.450818 25,22.85 Z M15.4,15.15 C15.4,13.7682185 16.446484,12.632331 17.8,12.43971 L17.8,17.5398985 C16.116526,17.0350205 15.4,16.4839425 15.4,15.15 Z M20.2,25.56029 L20.2,20.4601015 C21.883474,20.964985 22.6,21.5160575 22.6,22.8500055 C22.6,24.2317815 21.553516,25.367669 20.2,25.56029 Z" id="Shape" fill="#1B46C2" fill-rule="nonzero"></path>
                    </g>
                </g>
            </g>
        </g>
    </g>
</svg>