<?xml version="1.0" encoding="UTF-8"?>
<svg width="36px" height="38px" viewBox="0 0 36 38" version="1.1" xmlns="http://www.w3.org/2000/svg" xmlns:xlink="http://www.w3.org/1999/xlink">
    <!-- Generator: Sketch 61 (89581) - https://sketch.com -->
    <title>48px_block-top-right</title>
    <desc>Created with Sketch.</desc>
    <defs>
        <path d="M29.7542805,0.59239354 L21.4343978,0.59239354 C21.1973874,0.59239354 20.9826701,0.735538418 20.8923246,0.954362349 C20.8013924,1.17377294 20.8518451,1.42603645 21.0196296,1.59382102 L24.883368,5.45755939 L19.846311,10.4946164 C19.6169272,10.7240002 19.6169272,11.0953556 19.846311,11.3241527 L20.6758473,12.153689 C20.9052311,12.3830728 21.2765864,12.3830728 21.5053836,12.153689 L26.5424406,7.11663199 L30.406179,10.9803704 C30.5182309,11.0930089 30.6684157,11.1522615 30.8209471,11.1522615 C30.8966262,11.1522615 30.9728919,11.1375951 31.0456377,11.1076754 C31.2650482,11.0167432 31.4076065,10.8026126 31.4076065,10.5656022 L31.4076065,2.24571954 C31.4076065,1.92188359 30.0787031,0.59239354 29.7542805,0.59239354 Z" id="path-1"></path>
        <filter x="-79.6%" y="-51.1%" width="230.8%" height="219.1%" filterUnits="objectBoundingBox" id="filter-2">
            <feMorphology radius="2" operator="dilate" in="SourceAlpha" result="shadowSpreadOuter1"></feMorphology>
            <feOffset dx="0" dy="0" in="shadowSpreadOuter1" result="shadowOffsetOuter1"></feOffset>
            <feComposite in="shadowOffsetOuter1" in2="SourceAlpha" operator="out" result="shadowOffsetOuter1"></feComposite>
            <feColorMatrix values="0 0 0 0 1   0 0 0 0 1   0 0 0 0 1  0 0 0 1 0" type="matrix" in="shadowOffsetOuter1"></feColorMatrix>
        </filter>
    </defs>
    <g id="Home-Revamp" stroke="none" stroke-width="1" fill="none" fill-rule="evenodd">
        <g id="LandingPage-Elrond-Revamp" transform="translate(-264.000000, -1294.000000)" fill-rule="nonzero">
            <g id="The-Dawn-of-New-Blockchain-Era" transform="translate(80.000000, 1083.000000)">
                <g id="scalability" transform="translate(0.000000, 168.000000)">
                    <g id="48px_block-top-right" transform="translate(184.000000, 47.000000)">
                        <path d="M22.3473593,24.1980952 L9.25645022,24.1980952 C8.45281385,24.1980952 7.80190476,23.5471861 7.80190476,22.7435498 L7.80190476,9.65264069 C7.80190476,8.84900433 8.45281385,8.19809524 9.25645022,8.19809524 L22.3473593,8.19809524 C23.1509957,8.19809524 23.8019048,8.84900433 23.8019048,9.65264069 L23.8019048,22.7435498 C23.8019048,23.5471861 23.1509957,24.1980952 22.3473593,24.1980952 Z" id="Path" stroke="#1B46C2" stroke-dasharray="3"></path>
                        <path d="M15.3181818,33.5 C15.9461304,33.5 17.5,31.9461304 17.5,31.3181818 L17.5,18.6818182 C17.5,18.0538696 15.9461304,16.5 15.3181818,16.5 L2.68181818,16.5 C2.05386965,16.5 0.5,18.0538696 0.5,18.6818182 L0.5,31.3181818 C0.5,31.9461304 2.05386965,33.5 2.68181818,33.5 L15.3181818,33.5 Z" id="Path" stroke="#1B46C2" fill="#E3E7F2"></path>
                        <path d="M17.2,32.6577227 L14.4884864,32.6577227 C14.3238085,32.6577227 14,31.2100875 14,30.47387 L14,20.1838526 C14,19.4476352 14.3238085,18 14.4884864,18 L17.2,18 L17.2,32.6577227 Z" id="Path" fill="#A7BEEE" opacity="0.350399926" transform="translate(15.600000, 25.328861) rotate(-180.000000) translate(-15.600000, -25.328861) "></path>
                        <g id="Path">
                            <use fill="black" fill-opacity="1" filter="url(#filter-2)" xlink:href="#path-1"></use>
                            <path stroke="#1B46C2" stroke-width="2" d="M29.532579,1.59239354 L22.4324157,1.59239354 L26.2975816,5.45755939 L20.8457564,10.9093846 L21.0906154,11.1542436 L26.5424406,5.70241843 L27.2495474,6.40952521 L30.4076065,9.56758822 L30.4076065,2.4675618 C30.4049547,2.46404201 30.4022354,2.46044924 30.3994499,2.45679309 C30.302104,2.32902025 30.1566591,2.16592045 29.9954256,2.00465529 C29.8341677,1.84336567 29.6711126,1.69790986 29.5433808,1.60057658 C29.5397132,1.59778176 29.5361093,1.59505359 29.5325729,1.59239354 Z M31.1135788,10.2735614 L31.1151296,10.2751122 C31.1146138,10.2745937 31.1140969,10.2740768 31.1135788,10.2735614 Z M30.4709375,2.55862819 C30.4717137,2.5600704 30.4724933,2.56150406 30.473276,2.56292985 C30.4711407,2.55904024 30.4681269,2.55400907 30.4642818,2.54795062 Z" stroke-linejoin="square" fill="#1B46C2" fill-rule="evenodd"></path>
                        </g>
                    </g>
                </g>
            </g>
        </g>
    </g>
</svg>