<?xml version="1.0" encoding="UTF-8"?>
<svg width="84px" height="18px" viewBox="0 0 84 18" version="1.1" xmlns="http://www.w3.org/2000/svg" xmlns:xlink="http://www.w3.org/1999/xlink">
    <!-- Generator: Sketch 61 (89581) - https://sketch.com -->
    <title>The-block</title>
    <desc>Created with Sketch.</desc>
    <g id="The-block" stroke="none" stroke-width="1" fill="none" fill-rule="evenodd">
        <g id="theblock-daily-color.f88431e5-copy" transform="translate(1.000000, 2.500000)" fill="#FFFFFF" fill-rule="nonzero">
            <g id="Group">
                <polygon id="Path" points="2.58434199 3.8553125 0.168843677 3.8553125 0.168843677 0.5484375 8.37326805 0.5484375 8.37326805 3.8553125 5.95776973 3.8553125 5.95776973 12.5775 2.58778778 12.5775 2.58778778 3.8553125"></polygon>
                <polygon id="Path" points="9.486258 0.5484375 12.8424568 0.5484375 12.8424568 4.8384375 15.7369198 4.8384375 15.7369198 0.5484375 19.1069018 0.5484375 19.1069018 12.5775 15.7369198 12.5775 15.7369198 8.125 12.8424568 8.125 12.8424568 12.5734375 9.486258 12.5734375"></polygon>
                <polygon id="Path" points="20.984857 0.5484375 28.4277619 0.5484375 28.4277619 3.8553125 24.2376821 3.8553125 24.2376821 4.9440625 28.2658098 4.9440625 28.2658098 8.10875 24.2376821 8.10875 24.2376821 9.270625 28.5793766 9.270625 28.5793766 12.5775 20.984857 12.5775"></polygon>
                <path d="M33.5103011,0.5484375 L37.9691525,0.5484375 C39.6541435,0.5484375 41.607906,1.235 41.607906,3.6765625 C41.607906,4.89125 40.9669892,5.8215625 40.071084,6.2075 L40.071084,6.296875 C41.3391345,6.6828125 42.0248465,7.5278125 42.0248465,9.1121875 C42.0248465,11.821875 39.6541435,12.5775 37.6383567,12.5775 L33.5068553,12.5775 L33.5068553,0.5484375 L33.5103011,0.5484375 Z M37.5074167,5.2609375 C38.1793457,5.2609375 38.3585267,4.7490625 38.3585267,4.3996875 C38.3585267,4.01375 38.1793457,3.5384375 37.5384288,3.5384375 L36.6735357,3.5384375 L36.6735357,5.2609375 L37.5074167,5.2609375 L37.5074167,5.2609375 Z M37.6590315,9.498125 C38.3447435,9.498125 38.7031056,9.165 38.7031056,8.6003125 C38.7031056,7.8975 38.3171772,7.7025 37.5246457,7.7025 L36.6735357,7.7025 L36.6735357,9.4940625 L37.6590315,9.4940625 L37.6590315,9.498125 Z" id="Shape"></path>
                <polygon id="Path" points="43.4134996 0.5484375 46.7696984 0.5484375 46.7696984 9.18125 50.3946688 9.18125 50.3946688 12.5734375 43.4134996 12.5734375"></polygon>
                <path d="M50.5118256,6.5446875 C50.5118256,2.6040625 52.9273239,0.284375 56.1215706,0.284375 C59.2985884,0.284375 61.7278699,2.6040625 61.7278699,6.5446875 C61.7278699,10.3796875 59.5363479,12.8578125 56.1215706,12.8578125 C52.9273239,12.8578125 50.5118256,10.375625 50.5118256,6.5446875 Z M58.2062732,6.5446875 C58.2062732,4.9075 57.4309706,3.7659375 56.1181249,3.7659375 C54.8638575,3.7659375 54.0437597,4.8384375 54.0437597,6.5446875 C54.0437597,8.214375 54.8190623,9.37625 56.1181249,9.37625 C57.4034043,9.37625 58.2062732,8.2834375 58.2062732,6.5446875 Z" id="Shape"></path>
                <path d="M62.6203293,6.5975 C62.6203293,2.9575 64.784285,0.284375 68.2128454,0.284375 C69.4671127,0.284375 70.4663916,0.6378125 70.8075247,0.8653125 L70.8075247,4.346875 C70.149379,4.01375 69.5256911,3.7659375 68.4816169,3.7659375 C66.7208186,3.7659375 66.1557091,5.224375 66.1557091,6.58125 C66.1557091,8.5515625 67.1687712,9.34375 68.7366053,9.34375 C69.8116916,9.34375 70.4353795,9.14875 70.8109705,8.8846875 L70.8109705,12.35 C69.7668964,12.75625 68.9467985,12.861875 67.9613027,12.861875 C64.6774655,12.8578125 62.6203293,10.48125 62.6203293,6.5975 Z" id="Path"></path>
                <polygon id="Path" points="72.3271178 0.5484375 75.6833166 0.5484375 75.6833166 5.96375 77.9954412 0.5484375 81.7995927 0.5484375 78.9361417 5.841875 82.1441716 12.5775 78.3227912 12.5775 75.9072929 6.914375 75.6833166 6.914375 75.6833166 12.5775 72.3271178 12.5775"></polygon>
            </g>
        </g>
    </g>
</svg>